{
.appVersion = "3151";
.formatVersion = 3;
customParameters = (
{
name = vendorID;
value = XXXX;
},
{
name = panose;
value = (
0,
0,
0,
0,
0,
0,
0,
0,
0,
0
);
},
{
name = unicodeRanges;
value = (
0,
1,
2,
31,
60
);
},
{
name = codePageRanges;
value = (
"1252",
"1250"
);
},
{
name = fsType;
value = (
);
},
{
name = glyphOrder;
value = (
.notdef,
.null,
controlLF,
controlCR,
space,
exclam,
quotedbl,
numbersign,
dollar,
percent,
ampersand,
quotesingle,
parenleft,
parenright,
asterisk,
plus,
comma,
hyphen,
period,
slash,
zero,
one,
two,
three,
four,
five,
six,
seven,
eight,
nine,
colon,
semicolon,
less,
equal,
greater,
question,
at,
A,
B,
C,
D,
E,
F,
G,
H,
I,
J,
K,
L,
M,
N,
O,
P,
Q,
R,
S,
T,
U,
V,
W,
X,
Y,
Z,
bracketleft,
backslash,
bracketright,
a,
b,
c,
d,
e,
f,
g,
h,
i,
j,
k,
l,
m,
n,
o,
p,
q,
r,
s,
t,
u,
v,
w,
x,
y,
z,
braceleft,
verticalbar,
braceright,
nonbreakingspace,
softhyphen,
hyphen.alt1
);
}
);
date = "2020-02-27 18:26:48 +0000";
familyName = Blurrypix;
features = (
{
automatic = 1;
code = "";
tag = aalt;
}
);
fontMaster = (
{
customParameters = (
{
name = typoAscender;
value = 700;
},
{
name = typoDescender;
value = -240;
},
{
name = typoLineGap;
value = 0;
},
{
name = winAscent;
value = 653;
},
{
name = winDescent;
value = 240;
},
{
name = hheaAscender;
value = 700;
},
{
name = hheaDescender;
value = -240;
},
{
name = strikeoutPosition;
value = 258;
},
{
name = strikeoutSize;
value = 49;
}
);
id = m01;
metricValues = (
{
pos = 700;
},
{
pos = 640;
},
{
pos = 480;
},
{
},
{
pos = -240;
},
{
}
);
name = Regular;
}
);
glyphs = (
{
glyphname = exclam;
lastChange = "2023-03-06 21:15:41 +0000";
layers = (
{
layerId = m01;
shapes = (
{
closed = 1;
nodes = (
(35,334,ls),
(35,290,o),
(71,254,o),
(116,254,cs),
(160,254,o),
(195,290,o),
(195,334,cs),
(195,574,ls),
(195,618,o),
(160,654,o),
(116,654,cs),
(71,654,o),
(35,618,o),
(35,574,cs)
);
},
{
closed = 1;
nodes = (
(71,174,o),
(35,138,o),
(35,94,cs),
(35,50,o),
(71,14,o),
(116,14,cs),
(160,14,o),
(195,50,o),
(195,94,cs),
(195,138,o),
(160,174,o),
(116,174,cs)
);
}
);
width = 231;
}
);
note = exclam;
unicode = 33;
},
{
glyphname = quotedbl;
kernLeft = quotedbl;
lastChange = "2023-03-06 21:15:41 +0000";
layers = (
{
layerId = m01;
shapes = (
{
closed = 1;
nodes = (
(186,574,ls),
(186,618,o),
(151,654,o),
(107,654,cs),
(62,654,o),
(26,618,o),
(26,574,cs),
(26,414,ls),
(26,370,o),
(62,334,o),
(107,334,cs),
(151,334,o),
(186,370,o),
(186,414,cs)
);
},
{
closed = 1;
nodes = (
(425,574,ls),
(425,618,o),
(390,654,o),
(346,654,cs),
(302,654,o),
(266,618,o),
(266,574,cs),
(266,414,ls),
(266,370,o),
(302,334,o),
(346,334,cs),
(390,334,o),
(425,370,o),
(425,414,cs)
);
}
);
width = 452;
}
);
note = quotedbl;
unicode = (34,8220,8221);
},
{
glyphname = numbersign;
lastChange = "2023-03-06 21:15:41 +0000";
layers = (
{
layerId = m01;
shapes = (
{
closed = 1;
nodes = (
(663,244,o),
(628,280,o),
(584,280,cs),
(562,280,o),
(544,296,o),
(544,320,cs),
(544,343,o),
(562,360,o),
(584,360,cs),
(628,360,o),
(663,395,o),
(663,439,cs),
(663,484,o),
(628,520,o),
(584,520,cs),
(562,520,o),
(544,536,o),
(544,560,cs),
(544,604,o),
(508,639,o),
(464,639,cs),
(420,639,o),
(384,604,o),
(384,560,cs),
(384,536,o),
(366,520,o),
(345,520,cs),
(321,520,o),
(305,536,o),
(305,560,cs),
(305,604,o),
(269,639,o),
(225,639,cs),
(180,639,o),
(145,604,o),
(145,560,cs),
(145,536,o),
(128,520,o),
(105,520,cs),
(61,520,o),
(25,484,o),
(25,439,cs),
(25,395,o),
(61,360,o),
(105,360,cs),
(128,360,o),
(145,343,o),
(145,320,cs),
(145,296,o),
(128,280,o),
(105,280,cs),
(61,280,o),
(25,244,o),
(25,199,cs),
(25,155,o),
(61,119,o),
(105,119,cs),
(128,119,o),
(145,103,o),
(145,80,cs),
(145,36,o),
(180,0,o),
(225,0,cs),
(269,0,o),
(305,36,o),
(305,80,cs),
(305,103,o),
(321,119,o),
(345,119,cs),
(366,119,o),
(384,103,o),
(384,80,cs),
(384,36,o),
(420,0,o),
(464,0,cs),
(508,0,o),
(544,36,o),
(544,80,cs),
(544,103,o),
(562,119,o),
(584,119,cs),
(628,119,o),
(663,155,o),
(663,199,cs)
);
},
{
closed = 1;
nodes = (
(424,276,o),
(389,240,o),
(345,240,cs),
(301,240,o),
(265,276,o),
(265,320,cs),
(265,364,o),
(301,399,o),
(345,399,cs),
(389,399,o),
(424,364,o),
(424,320,cs)
);
}
);
width = 689;
}
);
note = numbersign;
unicode = 35;
},
{
glyphname = dollar;
lastChange = "2023-03-06 21:15:41 +0000";
layers = (
{
layerId = m01;
shapes = (
{
closed = 1;
nodes = (
(366,119,o),
(401,155,o),
(401,200,cs),
(401,320,ls),
(401,343,o),
(418,359,o),
(441,359,cs),
(561,359,ls),
(605,359,o),
(640,395,o),
(640,439,cs),
(640,484,o),
(605,520,o),
(561,520,cs),
(537,520,o),
(521,536,o),
(521,560,cs),
(521,604,o),
(485,639,o),
(441,639,cs),
(397,639,o),
(361,604,o),
(361,560,cs),
(361,536,o),
(343,520,o),
(322,520,cs),
(277,520,o),
(241,484,o),
(241,439,cs),
(241,320,ls),
(241,296,o),
(225,280,o),
(201,280,cs),
(82,280,ls),
(38,280,o),
(2,244,o),
(2,200,cs),
(2,155,o),
(38,119,o),
(82,119,cs),
(105,119,o),
(121,103,o),
(121,80,cs),
(121,36,o),
(157,0,o),
(201,0,cs),
(246,0,o),
(282,36,o),
(282,80,cs),
(282,103,o),
(298,119,o),
(322,119,cs)
);
}
);
width = 643;
}
);
note = dollar;
unicode = 36;
},
{
glyphname = percent;
lastChange = "2023-03-06 21:15:41 +0000";
layers = (
{
layerId = m01;
shapes = (
{
closed = 1;
nodes = (
(508,560,ls),
(508,604,o),
(472,639,o),
(428,639,cs),
(384,639,o),
(349,604,o),
(349,560,cs),
(349,479,ls),
(349,435,o),
(313,399,o),
(269,399,cs),
(225,399,o),
(189,364,o),
(189,320,cs),
(189,276,o),
(154,240,o),
(110,240,cs),
(109,240,ls),
(95,240,o),
(83,237,o),
(72,231,cs),
(49,218,o),
(29,193,o),
(29,159,cs),
(29,80,ls),
(29,36,o),
(65,0,o),
(109,0,cs),
(154,0,o),
(189,36,o),
(189,80,cs),
(189,159,ls),
(189,204,o),
(225,240,o),
(269,240,cs),
(313,240,o),
(349,276,o),
(349,320,cs),
(349,364,o),
(384,399,o),
(428,399,cs),
(442,399,o),
(455,402,o),
(466,410,c),
(490,422,o),
(508,447,o),
(508,480,cs)
);
},
{
closed = 1;
nodes = (
(65,560,o),
(29,524,o),
(29,480,cs),
(29,435,o),
(65,399,o),
(109,399,cs),
(154,399,o),
(189,435,o),
(189,480,cs),
(189,524,o),
(154,560,o),
(109,560,cs)
);
},
{
closed = 1;
nodes = (
(384,240,o),
(349,204,o),
(349,159,cs),
(349,115,o),
(384,80,o),
(428,80,cs),
(472,80,o),
(508,115,o),
(508,159,cs),
(508,204,o),
(472,240,o),
(428,240,cs)
);
}
);
width = 537;
}
);
note = percent;
unicode = 37;
},
{
glyphname = ampersand;
lastChange = "2023-03-06 21:15:41 +0000";
layers = (
{
layerId = m01;
shapes = (
{
closed = 1;
nodes = (
(622,324,o),
(587,360,o),
(543,360,cs),
(463,360,ls),
(419,360,o),
(383,324,o),
(383,280,cs),
(383,240,ls),
(383,195,o),
(348,159,o),
(304,159,cs),
(224,159,ls),
(201,159,o),
(184,177,o),
(184,200,cs),
(184,222,o),
(201,240,o),
(224,240,cs),
(268,240,o),
(304,276,o),
(304,320,cs),
(304,364,o),
(268,399,o),
(224,399,cs),
(201,399,o),
(184,418,o),
(184,439,cs),
(184,463,o),
(201,480,o),
(224,480,cs),
(423,480,ls),
(467,480,o),
(503,516,o),
(503,560,cs),
(503,604,o),
(467,639,o),
(423,639,cs),
(264,639,ls),
(220,639,o),
(184,604,o),
(184,560,cs),
(184,516,o),
(149,480,o),
(105,480,cs),
(60,480,o),
(24,444,o),
(24,399,cs),
(24,240,ls),
(24,195,o),
(60,159,o),
(105,159,cs),
(149,159,o),
(184,124,o),
(184,80,cs),
(184,36,o),
(220,0,o),
(264,0,cs),
(423,0,ls),
(467,0,o),
(503,36,o),
(503,80,cs),
(503,159,ls),
(503,183,o),
(521,200,o),
(543,200,cs),
(587,200,o),
(622,236,o),
(622,280,cs)
);
}
);
width = 628;
}
);
note = ampersand;
unicode = 38;
},
{
glyphname = quotesingle;
kernLeft = quotedbl;
lastChange = "2023-03-06 21:15:41 +0000";
layers = (
{
layerId = m01;
shapes = (
{
closed = 1;
nodes = (
(185,574,ls),
(185,618,o),
(150,654,o),
(106,654,cs),
(61,654,o),
(26,618,o),
(26,574,cs),
(26,414,ls),
(26,370,o),
(61,334,o),
(106,334,cs),
(150,334,o),
(185,370,o),
(185,414,cs)
);
}
);
width = 212;
}
);
note = quotesingle;
unicode = (39,8216,8217);
},
{
glyphname = parenleft;
kernLeft = parenleft;
lastChange = "2023-03-06 21:15:41 +0000";
layers = (
{
layerId = m01;
shapes = (
{
closed = 1;
nodes = (
(183,399,ls),
(183,444,o),
(219,480,o),
(264,480,cs),
(308,480,o),
(344,516,o),
(344,560,cs),
(344,604,o),
(308,639,o),
(264,639,cs),
(219,639,o),
(183,604,o),
(183,560,cs),
(183,516,o),
(148,480,o),
(104,480,cs),
(60,480,o),
(24,444,o),
(24,399,cs),
(24,240,ls),
(24,195,o),
(60,159,o),
(104,159,cs),
(148,159,o),
(183,124,o),
(183,80,cs),
(183,36,o),
(219,0,o),
(264,0,cs),
(308,0,o),
(344,36,o),
(344,80,cs),
(344,124,o),
(308,159,o),
(264,159,cs),
(219,159,o),
(183,195,o),
(183,240,cs)
);
}
);
width = 366;
}
);
note = parenleft;
unicode = 40;
},
{
glyphname = parenright;
kernLeft = parenright;
lastChange = "2023-03-06 21:15:41 +0000";
layers = (
{
layerId = m01;
shapes = (
{
closed = 1;
nodes = (
(181,240,ls),
(181,195,o),
(146,159,o),
(102,159,cs),
(58,159,o),
(22,124,o),
(22,80,cs),
(22,36,o),
(58,0,o),
(102,0,cs),
(146,0,o),
(181,36,o),
(181,80,cs),
(181,124,o),
(217,159,o),
(261,159,cs),
(305,159,o),
(341,195,o),
(341,240,cs),
(341,399,ls),
(341,444,o),
(305,480,o),
(261,480,cs),
(217,480,o),
(181,516,o),
(181,560,cs),
(181,604,o),
(146,639,o),
(102,639,cs),
(58,639,o),
(22,604,o),
(22,560,cs),
(22,516,o),
(58,480,o),
(102,480,cs),
(146,480,o),
(181,444,o),
(181,399,cs)
);
}
);
width = 365;
}
);
note = parenright;
unicode = 41;
},
{
glyphname = asterisk;
lastChange = "2023-03-06 21:15:41 +0000";
layers = (
{
layerId = m01;
shapes = (
{
closed = 1;
nodes = (
(61,520,o),
(25,484,o),
(25,439,cs),
(25,395,o),
(61,360,o),
(105,360,cs),
(150,360,o),
(185,395,o),
(185,439,cs),
(185,484,o),
(150,520,o),
(105,520,cs)
);
},
{
closed = 1;
nodes = (
(61,280,o),
(25,244,o),
(25,199,cs),
(25,155,o),
(61,119,o),
(105,119,cs),
(150,119,o),
(185,155,o),
(185,199,cs),
(185,244,o),
(150,280,o),
(105,280,cs)
);
},
{
closed = 1;
nodes = (
(261,639,o),
(225,604,o),
(225,560,cs),
(225,516,o),
(261,480,o),
(305,480,cs),
(349,480,o),
(385,516,o),
(385,560,cs),
(385,604,o),
(349,639,o),
(305,639,cs)
);
},
{
closed = 1;
nodes = (
(261,399,o),
(225,364,o),
(225,320,cs),
(225,276,o),
(261,240,o),
(305,240,cs),
(349,240,o),
(385,276,o),
(385,320,cs),
(385,364,o),
(349,399,o),
(305,399,cs)
);
},
{
closed = 1;
nodes = (
(261,159,o),
(225,124,o),
(225,80,cs),
(225,36,o),
(261,0,o),
(305,0,cs),
(349,0,o),
(385,36,o),
(385,80,cs),
(385,124,o),
(349,159,o),
(305,159,cs)
);
},
{
closed = 1;
nodes = (
(460,520,o),
(424,484,o),
(424,439,cs),
(424,395,o),
(460,360,o),
(504,360,cs),
(548,360,o),
(584,395,o),
(584,439,cs),
(584,484,o),
(548,520,o),
(504,520,cs)
);
},
{
closed = 1;
nodes = (
(460,280,o),
(424,244,o),
(424,199,cs),
(424,155,o),
(460,119,o),
(504,119,cs),
(548,119,o),
(584,155,o),
(584,199,cs),
(584,244,o),
(548,280,o),
(504,280,cs)
);
}
);
width = 609;
}
);
note = asterisk;
unicode = 42;
},
{
glyphname = plus;
lastChange = "2023-03-06 21:15:41 +0000";
layers = (
{
layerId = m01;
shapes = (
{
closed = 1;
nodes = (
(579,378,o),
(560,386,o),
(538,386,cs),
(516,386,o),
(496,378,o),
(481,363,cs),
(466,347,o),
(446,339,o),
(425,339,cs),
(403,339,o),
(384,347,o),
(369,363,cs),
(367,365,ls),
(351,380,o),
(345,399,o),
(345,419,cs),
(345,439,o),
(352,460,o),
(369,476,cs),
(384,491,o),
(392,511,o),
(392,532,cs),
(392,576,o),
(356,612,o),
(312,612,cs),
(267,612,o),
(232,576,o),
(232,532,cs),
(232,511,o),
(240,491,o),
(255,476,cs),
(271,461,o),
(279,441,o),
(279,420,cs),
(279,397,o),
(271,378,o),
(255,363,cs),
(239,346,o),
(219,339,o),
(199,339,cs),
(179,339,o),
(158,346,o),
(143,363,cs),
(128,378,o),
(108,386,o),
(87,386,cs),
(42,386,o),
(6,350,o),
(6,306,cs),
(6,284,o),
(14,265,o),
(29,249,cs),
(46,234,o),
(65,227,o),
(86,227,cs),
(106,227,o),
(127,234,o),
(142,249,c),
(143,249,l),
(158,266,o),
(179,273,o),
(199,273,cs),
(219,273,o),
(239,266,o),
(255,249,cs),
(257,247,ls),
(273,232,o),
(279,212,o),
(279,193,cs),
(279,173,o),
(272,152,o),
(255,136,cs),
(240,120,o),
(232,101,o),
(232,80,cs),
(232,36,o),
(267,0,o),
(312,0,cs),
(334,0,o),
(353,8,o),
(369,23,cs),
(384,39,o),
(392,58,o),
(392,80,cs),
(392,101,o),
(384,121,o),
(369,136,cs),
(339,165,o),
(336,212,o),
(362,244,c),
(369,249,l),
(384,265,o),
(403,273,o),
(425,273,cs),
(446,273,o),
(466,265,o),
(481,249,cs),
(496,234,o),
(516,226,o),
(538,226,cs),
(582,226,o),
(618,261,o),
(618,306,cs),
(618,328,o),
(610,347,o),
(594,363,cs)
);
}
);
width = 624;
}
);
note = plus;
unicode = 43;
},
{
glyphname = comma;
kernLeft = comma;
lastChange = "2023-03-06 21:15:41 +0000";
layers = (
{
layerId = m01;
shapes = (
{
closed = 1;
nodes = (
(87,81,ls),
(87,36,o),
(52,0,o),
(8,0,cs),
(-36,0,o),
(-72,-36,o),
(-72,-80,cs),
(-72,-124,o),
(-36,-159,o),
(8,-159,cs),
(52,-159,o),
(87,-124,o),
(87,-80,cs),
(87,-36,o),
(123,0,o),
(167,0,cs),
(212,0,o),
(248,36,o),
(248,81,cs),
(248,121,ls),
(248,164,o),
(212,200,o),
(167,200,cs),
(123,200,o),
(87,164,o),
(87,121,cs)
);
}
);
width = 268;
}
);
note = comma;
unicode = 44;
},
{
glyphname = hyphen;
kernLeft = hyphen;
lastChange = "2023-03-06 21:15:41 +0000";
layers = (
{
layerId = m01;
shapes = (
{
closed = 1;
nodes = (
(416,240,ls),
(460,240,o),
(496,276,o),
(496,320,cs),
(496,364,o),
(460,399,o),
(416,399,cs),
(97,399,ls),
(53,399,o),
(17,364,o),
(17,320,cs),
(17,276,o),
(53,240,o),
(97,240,cs)
);
}
);
width = 513;
}
);
note = hyphen;
unicode = 45;
},
{
glyphname = period;
kernLeft = period;
lastChange = "2023-03-06 21:15:41 +0000";
layers = (
{
layerId = m01;
shapes = (
{
closed = 1;
nodes = (
(53,159,o),
(17,124,o),
(17,80,cs),
(17,36,o),
(53,0,o),
(97,0,cs),
(141,0,o),
(176,36,o),
(176,80,cs),
(176,124,o),
(141,159,o),
(97,159,cs)
);
}
);
width = 194;
}
);
note = period;
unicode = 46;
},
{
glyphname = slash;
kernLeft = slash;
lastChange = "2023-03-06 21:15:41 +0000";
layers = (
{
layerId = m01;
shapes = (
{
closed = 1;
nodes = (
(493,560,ls),
(493,604,o),
(457,639,o),
(413,639,cs),
(369,639,o),
(334,604,o),
(334,560,cs),
(334,479,ls),
(334,435,o),
(298,399,o),
(254,399,cs),
(209,399,o),
(173,364,o),
(173,320,cs),
(173,276,o),
(138,240,o),
(94,240,cs),
(80,240,o),
(67,237,o),
(56,231,cs),
(32,218,o),
(14,193,o),
(14,159,cs),
(14,80,ls),
(14,36,o),
(50,0,o),
(94,0,cs),
(138,0,o),
(173,36,o),
(173,80,cs),
(173,159,ls),
(173,204,o),
(209,240,o),
(254,240,cs),
(298,240,o),
(334,276,o),
(334,320,cs),
(334,364,o),
(369,399,o),
(413,399,cs),
(427,399,o),
(440,402,o),
(451,410,c),
(475,422,o),
(493,447,o),
(493,480,cs)
);
}
);
width = 506;
}
);
note = slash;
unicode = 47;
},
{
glyphname = zero;
kernLeft = parenleft;
lastChange = "2023-03-06 21:15:41 +0000";
layers = (
{
layerId = m01;
shapes = (
{
closed = 1;
nodes = (
(344,0,ls),
(388,0,o),
(423,36,o),
(423,80,cs),
(423,124,o),
(459,159,o),
(503,159,cs),
(547,159,o),
(583,195,o),
(583,240,cs),
(583,399,ls),
(583,443,o),
(547,479,o),
(503,479,cs),
(459,479,o),
(423,515,o),
(423,560,cs),
(423,604,o),
(388,639,o),
(344,639,cs),
(264,639,ls),
(220,639,o),
(184,604,o),
(184,560,cs),
(184,515,o),
(149,479,o),
(104,479,cs),
(60,479,o),
(24,443,o),
(24,399,cs),
(24,240,ls),
(24,195,o),
(60,159,o),
(104,159,cs),
(149,159,o),
(184,124,o),
(184,80,cs),
(184,36,o),
(220,0,o),
(264,0,cs)
);
},
{
closed = 1;
nodes = (
(344,479,ls),
(388,479,o),
(423,443,o),
(423,399,cs),
(423,240,ls),
(423,195,o),
(388,159,o),
(344,159,cs),
(264,159,ls),
(220,159,o),
(184,195,o),
(184,240,cs),
(184,399,ls),
(184,443,o),
(220,479,o),
(264,479,cs)
);
},
{
closed = 1;
nodes = (
(260,399,o),
(224,364,o),
(224,320,cs),
(224,276,o),
(260,240,o),
(304,240,cs),
(348,240,o),
(384,276,o),
(384,320,cs),
(384,364,o),
(348,399,o),
(304,399,cs)
);
}
);
width = 607;
}
);
note = zero;
unicode = 48;
},
{
glyphname = one;
kernRight = one;
lastChange = "2023-03-06 21:15:41 +0000";
layers = (
{
layerId = m01;
shapes = (
{
closed = 1;
nodes = (
(125,80,ls),
(125,36,o),
(161,0,o),
(205,0,cs),
(250,0,o),
(286,36,o),
(286,80,cs),
(286,560,ls),
(286,604,o),
(250,639,o),
(205,639,cs),
(161,639,o),
(125,604,o),
(125,560,cs),
(125,536,o),
(109,520,o),
(86,520,cs),
(42,520,o),
(6,484,o),
(6,439,cs),
(6,395,o),
(42,360,o),
(86,360,cs),
(109,360,o),
(125,341,o),
(125,320,cs)
);
}
);
width = 325;
}
);
note = one;
unicode = 49;
},
{
glyphname = two;
lastChange = "2023-03-06 21:15:41 +0000";
layers = (
{
layerId = m01;
shapes = (
{
closed = 1;
nodes = (
(467,320,o),
(503,355,o),
(503,399,cs),
(503,443,o),
(467,479,o),
(423,479,cs),
(378,479,o),
(343,516,o),
(343,560,cs),
(343,604,o),
(307,639,o),
(263,639,cs),
(219,639,o),
(183,604,o),
(183,560,cs),
(183,516,o),
(148,479,o),
(104,479,cs),
(60,479,o),
(24,443,o),
(24,399,cs),
(24,355,o),
(60,320,o),
(104,320,cs),
(148,320,o),
(183,355,o),
(183,399,cs),
(183,443,o),
(219,479,o),
(263,479,cs),
(307,479,o),
(343,443,o),
(343,399,cs),
(343,355,o),
(307,320,o),
(263,320,cs),
(219,320,o),
(183,284,o),
(183,240,cs),
(183,195,o),
(219,159,o),
(263,159,cs),
(307,159,o),
(343,195,o),
(343,240,cs),
(343,284,o),
(378,320,o),
(423,320,cs)
);
},
{
closed = 1;
nodes = (
(423,0,ls),
(467,0,o),
(503,36,o),
(503,80,cs),
(503,124,o),
(467,159,o),
(423,159,cs),
(104,159,ls),
(60,159,o),
(24,124,o),
(24,80,cs),
(24,36,o),
(60,0,o),
(104,0,cs)
);
}
);
width = 528;
}
);
note = two;
unicode = 50;
},
{
glyphname = three;
lastChange = "2023-03-06 21:15:41 +0000";
layers = (
{
layerId = m01;
shapes = (
{
closed = 1;
nodes = (
(382,479,o),
(347,515,o),
(347,560,cs),
(347,604,o),
(311,639,o),
(267,639,cs),
(108,639,ls),
(63,639,o),
(27,604,o),
(27,560,cs),
(27,515,o),
(63,479,o),
(108,479,cs),
(307,479,ls),
(330,479,o),
(347,463,o),
(347,439,cs),
(347,418,o),
(330,399,o),
(307,399,cs),
(148,399,ls),
(104,399,o),
(68,364,o),
(68,320,cs),
(68,276,o),
(104,240,o),
(148,240,cs),
(307,240,ls),
(330,240,o),
(347,223,o),
(347,199,cs),
(347,178,o),
(330,159,o),
(307,159,cs),
(108,159,ls),
(63,159,o),
(27,124,o),
(27,80,cs),
(27,36,o),
(63,0,o),
(108,0,cs),
(267,0,ls),
(311,0,o),
(347,36,o),
(347,80,cs),
(347,124,o),
(382,159,o),
(426,159,cs),
(470,159,o),
(506,195,o),
(506,240,cs),
(506,261,o),
(490,280,o),
(466,280,cs),
(445,280,o),
(426,296,o),
(426,320,cs),
(426,341,o),
(445,360,o),
(466,360,cs),
(490,360,o),
(506,378,o),
(506,399,cs),
(506,443,o),
(470,479,o),
(426,479,cs)
);
}
);
width = 527;
}
);
note = three;
unicode = 51;
},
{
glyphname = four;
kernRight = one;
lastChange = "2023-03-06 21:15:41 +0000";
layers = (
{
layerId = m01;
shapes = (
{
closed = 1;
nodes = (
(27,320,ls),
(27,276,o),
(63,240,o),
(107,240,cs),
(267,240,ls),
(311,240,o),
(347,203,o),
(347,159,cs),
(347,80,ls),
(347,36,o),
(382,0,o),
(426,0,cs),
(470,0,o),
(506,36,o),
(506,80,cs),
(506,560,ls),
(506,604,o),
(470,639,o),
(426,639,cs),
(382,639,o),
(347,604,o),
(347,560,cs),
(347,399,ls),
(347,355,o),
(311,320,o),
(267,320,cs),
(222,320,o),
(186,355,o),
(186,399,cs),
(186,560,ls),
(186,604,o),
(152,639,o),
(107,639,cs),
(63,639,o),
(27,604,o),
(27,560,cs)
);
}
);
width = 545;
}
);
note = four;
unicode = 52;
},
{
glyphname = five;
lastChange = "2023-03-06 21:15:41 +0000";
layers = (
{
layerId = m01;
shapes = (
{
closed = 1;
nodes = (
(115,159,ls),
(71,159,o),
(35,124,o),
(35,80,cs),
(35,36,o),
(71,0,o),
(115,0,cs),
(473,0,ls),
(517,0,o),
(553,36,o),
(553,80,cs),
(553,159,ls),
(553,203,o),
(517,240,o),
(473,240,cs),
(429,240,o),
(393,276,o),
(393,320,cs),
(393,364,o),
(358,399,o),
(314,399,cs),
(155,399,ls),
(131,399,o),
(115,418,o),
(115,439,cs),
(115,463,o),
(131,479,o),
(155,479,cs),
(433,479,ls),
(477,479,o),
(513,515,o),
(513,560,cs),
(513,604,o),
(477,639,o),
(433,639,cs),
(115,639,ls),
(71,639,o),
(35,604,o),
(35,560,cs),
(35,320,ls),
(35,276,o),
(71,240,o),
(115,240,cs),
(354,240,ls),
(377,240,o),
(393,223,o),
(393,199,cs),
(393,178,o),
(377,159,o),
(354,159,cs)
);
}
);
width = 575;
}
);
note = five;
unicode = 53;
},
{
glyphname = six;
kernLeft = parenleft;
lastChange = "2023-03-06 21:15:41 +0000";
layers = (
{
layerId = m01;
shapes = (
{
closed = 1;
nodes = (
(24,240,ls),
(24,195,o),
(60,159,o),
(104,159,cs),
(148,159,o),
(183,124,o),
(183,80,cs),
(184,36,o),
(219,0,o),
(264,0,cs),
(383,0,ls),
(427,0,o),
(463,36,o),
(463,80,cs),
(463,124,o),
(499,159,o),
(543,159,cs),
(587,159,o),
(622,195,o),
(622,240,cs),
(622,360,ls),
(622,403,o),
(587,439,o),
(543,439,cs),
(344,439,ls),
(300,439,o),
(264,403,o),
(264,360,cs),
(264,336,o),
(246,320,o),
(224,320,cs),
(201,320,o),
(183,336,o),
(183,360,cs),
(183,399,ls),
(183,443,o),
(219,479,o),
(264,479,cs),
(308,479,o),
(344,515,o),
(344,560,cs),
(344,604,o),
(308,639,o),
(264,639,cs),
(219,639,o),
(183,604,o),
(183,560,cs),
(183,515,o),
(148,479,o),
(104,479,cs),
(60,479,o),
(24,443,o),
(24,399,cs)
);
},
{
closed = 1;
nodes = (
(304,284,o),
(340,320,o),
(383,320,cs),
(427,320,o),
(463,284,o),
(463,240,cs),
(463,195,o),
(427,159,o),
(383,159,cs),
(340,159,o),
(304,195,o),
(304,240,cs)
);
}
);
width = 644;
}
);
note = six;
unicode = 54;
},
{
glyphname = seven;
kernLeft = seven;
lastChange = "2023-03-06 21:15:41 +0000";
layers = (
{
layerId = m01;
shapes = (
{
closed = 1;
nodes = (
(370,399,ls),
(370,355,o),
(334,320,o),
(289,320,cs),
(245,320,o),
(209,284,o),
(209,240,cs),
(209,80,ls),
(209,36,o),
(245,0,o),
(289,0,cs),
(334,0,o),
(370,36,o),
(370,80,cs),
(370,240,ls),
(370,284,o),
(405,320,o),
(449,320,cs),
(493,320,o),
(529,355,o),
(529,399,cs),
(529,560,ls),
(529,604,o),
(493,639,o),
(449,639,cs),
(130,639,ls),
(86,639,o),
(50,604,o),
(50,560,cs),
(50,516,o),
(86,479,o),
(130,479,cs),
(330,479,ls),
(351,479,o),
(370,463,o),
(370,439,cs)
);
}
);
width = 551;
}
);
note = seven;
unicode = 55;
},
{
glyphname = eight;
lastChange = "2023-03-06 21:15:41 +0000";
layers = (
{
layerId = m01;
shapes = (
{
closed = 1;
nodes = (
(150,336,o),
(131,320,o),
(110,320,cs),
(66,320,o),
(30,284,o),
(30,240,cs),
(30,80,ls),
(30,36,o),
(66,0,o),
(110,0,cs),
(428,0,ls),
(473,0,o),
(509,36,o),
(509,80,cs),
(509,240,ls),
(509,284,o),
(473,320,o),
(428,320,cs),
(407,320,o),
(388,336,o),
(388,360,cs),
(388,383,o),
(407,399,o),
(428,399,cs),
(452,399,o),
(469,418,o),
(469,439,cs),
(469,560,ls),
(469,604,o),
(433,639,o),
(388,639,cs),
(150,639,ls),
(106,639,o),
(70,604,o),
(70,560,cs),
(70,439,ls),
(70,418,o),
(86,399,o),
(110,399,cs),
(131,399,o),
(150,383,o),
(150,360,cs)
);
},
{
closed = 1;
nodes = (
(349,435,o),
(313,399,o),
(269,399,cs),
(225,399,o),
(189,435,o),
(189,479,cs),
(189,524,o),
(225,560,o),
(269,560,cs),
(313,560,o),
(349,524,o),
(349,479,cs)
);
},
{
closed = 1;
nodes = (
(349,155,o),
(313,119,o),
(269,119,cs),
(225,119,o),
(189,155,o),
(189,199,cs),
(189,244,o),
(225,280,o),
(269,280,cs),
(313,280,o),
(349,244,o),
(349,199,cs)
);
}
);
width = 540;
}
);
note = eight;
unicode = 56;
},
{
glyphname = nine;
lastChange = "2023-03-06 21:15:41 +0000";
layers = (
{
layerId = m01;
shapes = (
{
closed = 1;
nodes = (
(301,199,ls),
(345,199,o),
(380,235,o),
(380,280,cs),
(380,301,o),
(399,320,o),
(420,320,cs),
(444,320,o),
(460,301,o),
(460,280,cs),
(460,80,ls),
(460,36,o),
(496,0,o),
(540,0,cs),
(584,0,o),
(619,36,o),
(619,80,cs),
(619,399,ls),
(619,443,o),
(584,479,o),
(540,479,cs),
(496,479,o),
(460,515,o),
(460,560,cs),
(460,604,o),
(424,639,o),
(380,639,cs),
(261,639,ls),
(217,639,o),
(181,604,o),
(181,560,cs),
(181,515,o),
(146,479,o),
(102,479,cs),
(57,479,o),
(21,443,o),
(21,399,cs),
(21,280,ls),
(21,235,o),
(57,199,o),
(102,199,cs)
);
},
{
closed = 1;
nodes = (
(341,355,o),
(305,320,o),
(261,320,cs),
(217,320,o),
(181,355,o),
(181,399,cs),
(181,443,o),
(217,479,o),
(261,479,cs),
(305,479,o),
(341,443,o),
(341,399,cs)
);
}
);
width = 652;
}
);
note = nine;
unicode = 57;
},
{
glyphname = colon;
lastChange = "2023-03-06 21:15:41 +0000";
layers = (
{
layerId = m01;
shapes = (
{
closed = 1;
nodes = (
(61,574,o),
(25,538,o),
(25,493,cs),
(25,449,o),
(61,414,o),
(105,414,cs),
(149,414,o),
(184,449,o),
(184,493,cs),
(184,538,o),
(149,574,o),
(105,574,cs)
);
},
{
closed = 1;
nodes = (
(61,254,o),
(25,218,o),
(25,174,cs),
(25,130,o),
(61,94,o),
(105,94,cs),
(149,94,o),
(184,130,o),
(184,174,cs),
(184,218,o),
(149,254,o),
(105,254,cs)
);
}
);
width = 210;
}
);
note = colon;
unicode = 58;
},
{
glyphname = semicolon;
kernLeft = semicolon;
lastChange = "2023-03-06 21:15:41 +0000";
layers = (
{
layerId = m01;
shapes = (
{
closed = 1;
nodes = (
(167,195,o),
(132,159,o),
(88,159,cs),
(44,159,o),
(8,124,o),
(8,80,cs),
(8,36,o),
(44,0,o),
(88,0,cs),
(132,0,o),
(167,36,o),
(167,80,cs),
(167,124,o),
(203,159,o),
(248,159,cs),
(292,159,o),
(328,195,o),
(328,240,cs),
(328,284,o),
(292,320,o),
(248,320,cs),
(203,320,o),
(167,284,o),
(167,240,cs)
);
},
{
closed = 1;
nodes = (
(203,560,o),
(167,524,o),
(167,480,cs),
(167,435,o),
(203,399,o),
(248,399,cs),
(292,399,o),
(328,435,o),
(328,480,cs),
(328,524,o),
(292,560,o),
(248,560,cs)
);
}
);
width = 351;
}
);
note = semicolon;
unicode = 59;
},
{
glyphname = less;
lastChange = "2023-03-06 21:15:41 +0000";
layers = (
{
layerId = m01;
shapes = (
{
closed = 1;
nodes = (
(137,230,o),
(172,194,o),
(172,149,cs),
(172,105,o),
(208,69,o),
(253,69,cs),
(297,69,o),
(333,105,o),
(333,149,cs),
(333,194,o),
(297,230,o),
(253,230,cs),
(208,230,o),
(172,266,o),
(172,309,cs),
(172,353,o),
(208,389,o),
(253,389,cs),
(297,389,o),
(333,425,o),
(333,470,cs),
(333,514,o),
(297,549,o),
(253,549,cs),
(208,549,o),
(172,514,o),
(172,470,cs),
(172,425,o),
(137,389,o),
(93,389,cs),
(55,389,o),
(22,362,o),
(15,326,cs),
(14,319,o),
(13,314,o),
(13,309,cs),
(13,266,o),
(49,230,o),
(93,230,cs)
);
}
);
width = 358;
}
);
note = less;
unicode = 60;
},
{
glyphname = equal;
lastChange = "2023-03-06 21:15:41 +0000";
layers = (
{
layerId = m01;
shapes = (
{
closed = 1;
nodes = (
(535,520,o),
(515,512,o),
(500,496,cs),
(484,480,o),
(464,473,o),
(444,473,cs),
(423,473,o),
(403,480,o),
(388,496,c),
(387,496,l),
(371,512,o),
(352,520,o),
(330,520,cs),
(309,520,o),
(290,512,o),
(274,496,cs),
(259,481,o),
(239,473,o),
(218,473,cs),
(196,473,o),
(176,481,o),
(161,496,cs),
(146,512,o),
(126,520,o),
(105,520,cs),
(61,520,o),
(25,484,o),
(25,440,cs),
(25,395,o),
(61,360,o),
(105,360,cs),
(126,360,o),
(146,368,o),
(161,383,cs),
(176,398,o),
(196,406,o),
(218,406,cs),
(239,406,o),
(259,398,o),
(274,383,cs),
(290,368,o),
(309,360,o),
(330,360,cs),
(352,360,o),
(371,368,o),
(387,383,cs),
(402,398,o),
(421,406,o),
(444,406,cs),
(465,406,o),
(485,398,o),
(500,383,cs),
(515,368,o),
(535,360,o),
(556,360,cs),
(600,360,o),
(636,395,o),
(636,440,cs),
(636,462,o),
(628,481,o),
(612,496,cs),
(597,512,o),
(578,520,o),
(556,520,cs)
);
},
{
closed = 1;
nodes = (
(535,280,o),
(515,272,o),
(500,256,cs),
(484,240,o),
(464,233,o),
(444,233,cs),
(423,233,o),
(403,240,o),
(388,256,c),
(387,256,l),
(371,272,o),
(352,280,o),
(330,280,cs),
(309,280,o),
(290,272,o),
(274,256,cs),
(259,241,o),
(239,233,o),
(218,233,cs),
(196,233,o),
(176,241,o),
(161,256,cs),
(146,272,o),
(126,280,o),
(105,280,cs),
(61,280,o),
(25,244,o),
(25,200,cs),
(25,155,o),
(61,119,o),
(105,119,cs),
(126,119,o),
(146,128,o),
(161,143,cs),
(176,158,o),
(196,166,o),
(218,166,cs),
(239,166,o),
(259,158,o),
(274,143,cs),
(290,128,o),
(309,119,o),
(330,119,cs),
(352,119,o),
(371,128,o),
(387,143,cs),
(402,158,o),
(421,166,o),
(444,166,cs),
(465,166,o),
(485,158,o),
(500,143,cs),
(515,128,o),
(535,119,o),
(556,119,cs),
(600,119,o),
(636,155,o),
(636,200,cs),
(636,222,o),
(628,241,o),
(612,256,cs),
(597,272,o),
(578,280,o),
(556,280,cs)
);
}
);
width = 661;
}
);
note = equal;
unicode = 61;
},
{
glyphname = greater;
lastChange = "2023-03-06 21:15:41 +0000";
layers = (
{
layerId = m01;
shapes = (
{
closed = 1;
nodes = (
(221,379,o),
(185,415,o),
(185,459,cs),
(185,504,o),
(150,539,o),
(106,539,cs),
(61,539,o),
(25,504,o),
(25,459,cs),
(25,415,o),
(61,379,o),
(106,379,cs),
(150,379,o),
(185,343,o),
(185,299,cs),
(185,255,o),
(150,220,o),
(106,220,cs),
(61,220,o),
(26,183,o),
(26,139,cs),
(26,95,o),
(61,59,o),
(106,59,cs),
(150,59,o),
(185,95,o),
(185,139,cs),
(185,183,o),
(221,220,o),
(265,220,cs),
(305,220,o),
(335,246,o),
(343,283,cs),
(344,286,o),
(345,292,o),
(345,299,cs),
(345,343,o),
(309,379,o),
(265,379,cs)
);
}
);
width = 358;
}
);
note = greater;
unicode = 62;
},
{
glyphname = question;
kernLeft = question;
lastChange = "2023-03-06 21:15:41 +0000";
layers = (
{
layerId = m01;
shapes = (
{
closed = 1;
nodes = (
(346,399,o),
(381,435,o),
(381,479,cs),
(381,560,ls),
(381,604,o),
(346,639,o),
(301,639,cs),
(102,639,ls),
(58,639,o),
(22,604,o),
(22,560,cs),
(22,516,o),
(58,479,o),
(102,479,cs),
(181,479,ls),
(205,479,o),
(221,463,o),
(221,439,cs),
(221,418,o),
(205,399,o),
(181,399,cs),
(142,399,ls),
(98,399,o),
(62,364,o),
(62,320,cs),
(62,276,o),
(98,240,o),
(142,240,cs),
(185,240,o),
(221,276,o),
(221,320,cs),
(221,364,o),
(257,399,o),
(301,399,cs)
);
},
{
closed = 1;
nodes = (
(98,159,o),
(62,124,o),
(62,80,cs),
(62,36,o),
(98,0,o),
(142,0,cs),
(185,0,o),
(221,36,o),
(221,80,cs),
(221,124,o),
(185,159,o),
(142,159,cs)
);
}
);
width = 398;
}
);
note = question;
unicode = 63;
},
{
glyphname = at;
lastChange = "2023-03-06 21:15:41 +0000";
layers = (
{
layerId = m01;
shapes = (
{
closed = 1;
nodes = (
(492,80,ls),
(492,36,o),
(528,0,o),
(572,0,cs),
(616,0,o),
(651,36,o),
(651,80,cs),
(651,399,ls),
(651,444,o),
(616,480,o),
(572,480,cs),
(528,480,o),
(492,516,o),
(492,560,cs),
(492,604,o),
(456,639,o),
(412,639,cs),
(253,639,ls),
(209,639,o),
(173,604,o),
(173,560,cs),
(173,516,o),
(138,480,o),
(93,480,cs),
(49,480,o),
(13,444,o),
(13,399,cs),
(13,355,o),
(49,320,o),
(93,320,cs),
(138,320,o),
(173,355,o),
(173,399,cs),
(173,444,o),
(209,480,o),
(253,480,cs),
(412,480,ls),
(456,480,o),
(492,444,o),
(492,399,cs)
);
},
{
closed = 1;
nodes = (
(128,240,o),
(93,204,o),
(93,159,cs),
(93,80,ls),
(93,36,o),
(128,0,o),
(173,0,cs),
(373,0,ls),
(416,0,o),
(452,36,o),
(452,80,cs),
(452,124,o),
(416,159,o),
(373,159,cs),
(293,159,ls),
(269,159,o),
(253,177,o),
(253,200,cs),
(253,222,o),
(269,240,o),
(293,240,cs),
(333,240,ls),
(377,240,o),
(412,276,o),
(412,320,cs),
(412,364,o),
(377,399,o),
(333,399,cs),
(289,399,o),
(253,364,o),
(253,320,cs),
(253,276,o),
(217,240,o),
(173,240,cs)
);
}
);
width = 684;
}
);
note = at;
unicode = 64;
},
{
glyphname = A;
kernLeft = A;
kernRight = A;
lastChange = "2023-03-06 21:15:41 +0000";
layers = (
{
layerId = m01;
shapes = (
{
closed = 1;
nodes = (
(346,605,o),
(310,640,o),
(265,640,cs),
(221,640,o),
(185,605,o),
(185,560,cs),
(185,516,o),
(150,480,o),
(106,480,cs),
(62,480,o),
(26,444,o),
(26,400,cs),
(26,81,ls),
(26,36,o),
(62,0,o),
(106,0,cs),
(150,0,o),
(185,36,o),
(185,81,cs),
(185,121,ls),
(185,164,o),
(221,200,o),
(265,200,cs),
(310,200,o),
(346,164,o),
(346,121,cs),
(346,81,ls),
(346,36,o),
(381,0,o),
(425,0,cs),
(469,0,o),
(505,36,o),
(505,81,cs),
(505,400,ls),
(505,444,o),
(469,480,o),
(425,480,cs),
(381,480,o),
(346,516,o),
(346,560,cs)
);
},
{
closed = 1;
nodes = (
(221,280,o),
(185,316,o),
(185,361,cs),
(185,404,o),
(221,440,o),
(265,440,cs),
(310,440,o),
(346,404,o),
(346,361,cs),
(346,316,o),
(310,280,o),
(265,280,cs)
);
}
);
width = 532;
}
);
note = A;
unicode = (65,192,193,194,195,196,197);
},
{
glyphname = B;
lastChange = "2023-03-06 21:15:41 +0000";
layers = (
{
layerId = m01;
shapes = (
{
closed = 1;
nodes = (
(114,640,ls),
(70,640,o),
(34,605,o),
(34,560,cs),
(34,516,o),
(70,480,o),
(114,480,cs),
(273,480,ls),
(317,480,o),
(353,444,o),
(353,400,cs),
(353,356,o),
(388,321,o),
(433,321,cs),
(477,321,o),
(513,356,o),
(513,400,cs),
(513,444,o),
(477,480,o),
(433,480,cs),
(388,480,o),
(353,516,o),
(353,560,cs),
(353,605,o),
(317,640,o),
(273,640,cs)
);
},
{
closed = 1;
nodes = (
(433,0,ls),
(477,0,o),
(513,36,o),
(513,81,cs),
(513,160,ls),
(513,204,o),
(477,240,o),
(433,240,cs),
(388,240,o),
(353,276,o),
(353,321,cs),
(353,365,o),
(317,400,o),
(273,400,cs),
(229,400,o),
(193,365,o),
(193,321,cs),
(193,276,o),
(229,240,o),
(273,240,cs),
(317,240,o),
(353,204,o),
(353,160,cs),
(353,121,ls),
(353,97,o),
(336,81,o),
(313,81,cs),
(233,81,ls),
(212,81,o),
(193,97,o),
(193,121,cs),
(193,361,ls),
(193,404,o),
(158,440,o),
(114,440,cs),
(70,440,o),
(34,404,o),
(34,361,cs),
(34,81,ls),
(34,36,o),
(70,0,o),
(114,0,cs)
);
}
);
width = 533;
}
);
note = B;
unicode = 66;
},
{
glyphname = C;
kernLeft = C;
kernRight = C;
lastChange = "2023-03-06 21:15:41 +0000";
layers = (
{
layerId = m01;
shapes = (
{
closed = 1;
nodes = (
(335,356,o),
(370,321,o),
(414,321,cs),
(458,321,o),
(494,356,o),
(494,400,cs),
(494,444,o),
(458,480,o),
(414,480,cs),
(370,480,o),
(335,516,o),
(335,560,cs),
(335,605,o),
(299,640,o),
(255,640,cs),
(210,640,o),
(174,605,o),
(174,560,cs),
(174,516,o),
(139,480,o),
(95,480,cs),
(51,480,o),
(15,444,o),
(15,400,cs),
(15,240,ls),
(15,196,o),
(51,160,o),
(95,160,cs),
(139,160,o),
(174,125,o),
(174,81,cs),
(174,36,o),
(210,0,o),
(255,0,cs),
(414,0,ls),
(458,0,o),
(494,36,o),
(494,81,cs),
(494,125,o),
(458,160,o),
(414,160,cs),
(255,160,ls),
(210,160,o),
(174,196,o),
(174,240,cs),
(174,400,ls),
(174,444,o),
(210,480,o),
(255,480,cs),
(299,480,o),
(335,444,o),
(335,400,cs)
);
}
);
width = 508;
}
);
note = C;
unicode = (67,199);
},
{
glyphname = D;
kernRight = D;
lastChange = "2023-03-06 21:15:41 +0000";
layers = (
{
layerId = m01;
shapes = (
{
closed = 1;
nodes = (
(477,160,o),
(513,196,o),
(513,240,cs),
(513,400,ls),
(513,444,o),
(477,480,o),
(433,480,cs),
(389,480,o),
(354,516,o),
(354,560,cs),
(354,605,o),
(318,640,o),
(274,640,cs),
(114,640,ls),
(70,640,o),
(34,605,o),
(34,560,cs),
(34,516,o),
(70,480,o),
(114,480,cs),
(274,480,ls),
(318,480,o),
(354,444,o),
(354,400,cs),
(354,240,ls),
(354,196,o),
(318,160,o),
(274,160,cs),
(229,160,o),
(193,196,o),
(193,240,cs),
(193,361,ls),
(193,404,o),
(158,440,o),
(114,440,cs),
(70,440,o),
(34,404,o),
(34,361,cs),
(34,81,ls),
(34,36,o),
(70,0,o),
(114,0,cs),
(274,0,ls),
(318,0,o),
(354,36,o),
(354,81,cs),
(354,125,o),
(389,160,o),
(433,160,cs)
);
}
);
width = 527;
}
);
note = D;
unicode = 68;
},
{
glyphname = E;
kernLeft = C;
kernRight = E;
lastChange = "2023-03-06 21:15:41 +0000";
layers = (
{
layerId = m01;
shapes = (
{
closed = 1;
nodes = (
(414,0,ls),
(458,0,o),
(494,36,o),
(494,81,cs),
(494,125,o),
(458,160,o),
(414,160,cs),
(215,160,ls),
(192,160,o),
(175,177,o),
(175,200,cs),
(175,224,o),
(192,240,o),
(215,240,cs),
(374,240,ls),
(418,240,o),
(454,276,o),
(454,321,cs),
(454,365,o),
(418,400,o),
(374,400,cs),
(215,400,ls),
(192,400,o),
(175,417,o),
(175,440,cs),
(175,464,o),
(192,480,o),
(215,480,cs),
(414,480,ls),
(458,480,o),
(494,516,o),
(494,560,cs),
(494,605,o),
(458,640,o),
(414,640,cs),
(255,640,ls),
(210,640,o),
(174,605,o),
(174,560,c),
(175,560,l),
(175,516,o),
(140,480,o),
(95,480,cs),
(51,480,o),
(15,444,o),
(15,400,cs),
(15,240,ls),
(15,196,o),
(51,160,o),
(95,160,cs),
(118,160,o),
(138,152,o),
(152,138,cs),
(166,124,o),
(174,102,o),
(174,81,cs),
(174,36,o),
(210,0,o),
(255,0,cs)
);
}
);
width = 513;
}
);
note = E;
unicode = (69,200,201,202,203);
},
{
glyphname = F;
kernLeft = A;
kernRight = F;
lastChange = "2023-03-06 21:15:41 +0000";
layers = (
{
layerId = m01;
shapes = (
{
closed = 1;
nodes = (
(26,81,ls),
(26,36,o),
(62,0,o),
(106,0,cs),
(150,0,o),
(185,36,o),
(185,81,cs),
(185,200,ls),
(185,224,o),
(204,240,o),
(225,240,cs),
(384,240,ls),
(429,240,o),
(465,276,o),
(465,321,cs),
(465,365,o),
(429,400,o),
(384,400,cs),
(225,400,ls),
(204,400,o),
(185,417,o),
(185,440,cs),
(185,464,o),
(204,480,o),
(225,480,cs),
(425,480,ls),
(469,480,o),
(505,516,o),
(505,560,cs),
(505,605,o),
(469,640,o),
(425,640,cs),
(265,640,ls),
(221,640,o),
(185,605,o),
(185,560,cs),
(185,516,o),
(150,480,o),
(106,480,cs),
(62,480,o),
(26,444,o),
(26,400,cs)
);
}
);
width = 510;
}
);
note = F;
unicode = 70;
},
{
glyphname = G;
kernLeft = C;
kernRight = G;
lastChange = "2023-03-06 21:15:41 +0000";
layers = (
{
layerId = m01;
shapes = (
{
closed = 1;
nodes = (
(174,36,o),
(210,0,o),
(254,0,cs),
(298,0,o),
(334,36,o),
(334,81,cs),
(334,125,o),
(369,160,o),
(413,160,cs),
(494,160,ls),
(538,160,o),
(574,196,o),
(574,240,cs),
(574,284,o),
(538,321,o),
(494,321,cs),
(413,321,ls),
(369,321,o),
(334,284,o),
(334,240,cs),
(334,196,o),
(298,160,o),
(254,160,cs),
(210,160,o),
(174,196,o),
(174,240,cs),
(174,400,ls),
(174,444,o),
(210,480,o),
(254,480,cs),
(334,480,ls),
(378,480,o),
(413,516,o),
(413,560,cs),
(413,605,o),
(378,640,o),
(334,640,cs),
(254,640,ls),
(210,640,o),
(174,605,o),
(174,560,cs),
(174,516,o),
(139,480,o),
(95,480,cs),
(51,480,o),
(15,444,o),
(15,400,cs),
(15,240,ls),
(15,196,o),
(51,160,o),
(95,160,cs),
(139,160,o),
(174,125,o),
(174,81,cs)
);
}
);
width = 574;
}
);
note = G;
unicode = 71;
},
{
glyphname = H;
kernRight = H;
lastChange = "2023-03-06 21:15:41 +0000";
layers = (
{
layerId = m01;
shapes = (
{
closed = 1;
nodes = (
(198,200,ls),
(198,244,o),
(234,280,o),
(278,280,cs),
(322,280,o),
(358,244,o),
(358,200,cs),
(358,81,ls),
(358,36,o),
(393,0,o),
(437,0,cs),
(481,0,o),
(517,36,o),
(517,81,cs),
(517,560,ls),
(517,605,o),
(481,640,o),
(437,640,cs),
(393,640,o),
(358,605,o),
(358,560,cs),
(358,440,ls),
(358,396,o),
(322,361,o),
(278,361,cs),
(234,361,o),
(198,396,o),
(198,440,cs),
(198,560,ls),
(198,605,o),
(163,640,o),
(119,640,cs),
(74,640,o),
(38,605,o),
(38,560,cs),
(38,81,ls),
(38,36,o),
(74,0,o),
(119,0,cs),
(163,0,o),
(198,36,o),
(198,81,cs)
);
}
);
width = 555;
}
);
note = H;
unicode = 72;
},
{
glyphname = I;
kernLeft = I;
kernRight = I;
lastChange = "2023-03-06 21:15:41 +0000";
layers = (
{
layerId = m01;
shapes = (
{
closed = 1;
nodes = (
(292,440,ls),
(292,464,o),
(308,480,o),
(332,480,cs),
(376,480,o),
(411,516,o),
(411,560,cs),
(411,605,o),
(376,640,o),
(332,640,cs),
(92,640,ls),
(48,640,o),
(12,605,o),
(12,560,cs),
(12,516,o),
(48,480,o),
(92,480,cs),
(115,480,o),
(131,464,o),
(131,440,cs),
(131,200,ls),
(131,177,o),
(115,160,o),
(92,160,cs),
(48,160,o),
(12,125,o),
(12,81,cs),
(12,36,o),
(48,0,o),
(92,0,cs),
(332,0,ls),
(376,0,o),
(411,36,o),
(411,81,cs),
(411,125,o),
(376,160,o),
(332,160,cs),
(308,160,o),
(292,177,o),
(292,200,cs)
);
}
);
width = 424;
}
);
note = I;
unicode = (73,204,205,206,207);
},
{
glyphname = J;
kernRight = J;
lastChange = "2023-03-06 21:15:41 +0000";
layers = (
{
layerId = m01;
shapes = (
{
closed = 1;
nodes = (
(159,284,o),
(124,321,o),
(80,321,cs),
(36,321,o),
(0,284,o),
(0,240,cs),
(0,196,o),
(36,160,o),
(80,160,cs),
(124,160,o),
(159,125,o),
(159,81,cs),
(159,36,o),
(195,0,o),
(239,0,cs),
(398,0,ls),
(443,0,o),
(479,36,o),
(479,81,cs),
(479,440,ls),
(479,464,o),
(495,480,o),
(519,480,cs),
(563,480,o),
(598,516,o),
(598,560,cs),
(598,605,o),
(563,640,o),
(519,640,cs),
(398,640,ls),
(354,640,o),
(319,605,o),
(319,560,cs),
(319,240,ls),
(319,196,o),
(283,160,o),
(239,160,cs),
(195,160,o),
(159,196,o),
(159,240,cs)
);
}
);
width = 597;
}
);
note = J;
unicode = 74;
},
{
glyphname = K;
kernLeft = K;
kernRight = K;
lastChange = "2023-03-06 21:15:41 +0000";
layers = (
{
layerId = m01;
shapes = (
{
closed = 1;
nodes = (
(561,400,o),
(596,436,o),
(596,480,cs),
(596,560,ls),
(596,605,o),
(561,640,o),
(517,640,cs),
(472,640,o),
(436,605,o),
(436,560,cs),
(436,480,ls),
(436,436,o),
(400,400,o),
(356,400,cs),
(317,400,ls),
(295,400,o),
(277,417,o),
(277,440,cs),
(277,560,ls),
(277,605,o),
(241,640,o),
(197,640,cs),
(78,640,ls),
(34,640,o),
(-2,605,o),
(-2,560,cs),
(-2,516,o),
(34,480,o),
(78,480,cs),
(99,480,o),
(118,464,o),
(118,440,cs),
(118,81,ls),
(118,36,o),
(153,0,o),
(197,0,cs),
(241,0,o),
(277,36,o),
(277,81,cs),
(277,200,ls),
(277,224,o),
(295,240,o),
(317,240,cs),
(356,240,ls),
(400,240,o),
(436,204,o),
(436,160,cs),
(436,81,ls),
(436,36,o),
(472,0,o),
(517,0,cs),
(561,0,o),
(596,36,o),
(596,81,cs),
(596,160,ls),
(596,204,o),
(561,240,o),
(517,240,cs),
(472,240,o),
(436,276,o),
(436,321,cs),
(436,365,o),
(472,400,o),
(517,400,cs)
);
}
);
width = 623;
}
);
note = K;
unicode = 75;
},
{
glyphname = L;
kernLeft = L;
kernRight = L;
lastChange = "2023-03-06 21:15:41 +0000";
layers = (
{
layerId = m01;
shapes = (
{
closed = 1;
nodes = (
(384,0,ls),
(428,0,o),
(464,36,o),
(464,81,cs),
(464,125,o),
(428,160,o),
(384,160,cs),
(265,160,ls),
(221,160,o),
(185,196,o),
(185,240,cs),
(185,560,ls),
(185,605,o),
(150,640,o),
(106,640,cs),
(62,640,o),
(26,605,o),
(26,560,cs),
(26,240,ls),
(26,196,o),
(62,160,o),
(106,160,cs),
(150,160,o),
(185,125,o),
(185,81,cs),
(185,36,o),
(221,0,o),
(265,0,cs)
);
}
);
width = 463;
}
);
note = L;
unicode = 76;
},
{
glyphname = M;
kernLeft = A;
kernRight = A;
lastChange = "2023-03-06 21:15:41 +0000";
layers = (
{
layerId = m01;
shapes = (
{
closed = 1;
nodes = (
(26,81,ls),
(26,36,o),
(62,0,o),
(106,0,cs),
(150,0,o),
(185,36,o),
(185,81,cs),
(185,440,ls),
(185,464,o),
(203,480,o),
(226,480,cs),
(248,480,o),
(266,464,o),
(266,440,cs),
(266,160,ls),
(266,116,o),
(302,81,o),
(346,81,cs),
(390,81,o),
(425,116,o),
(425,160,cs),
(425,440,ls),
(425,464,o),
(442,480,o),
(465,480,cs),
(487,480,o),
(505,464,o),
(505,440,cs),
(505,81,ls),
(505,36,o),
(541,0,o),
(585,0,cs),
(629,0,o),
(664,36,o),
(664,81,cs),
(664,400,ls),
(664,444,o),
(629,480,o),
(585,480,cs),
(541,480,o),
(505,516,o),
(505,560,cs),
(505,605,o),
(469,640,o),
(425,640,cs),
(266,640,ls),
(221,640,o),
(185,605,o),
(185,560,cs),
(185,516,o),
(150,480,o),
(106,480,cs),
(62,480,o),
(26,444,o),
(26,400,cs)
);
}
);
width = 691;
}
);
note = M;
unicode = 77;
},
{
glyphname = N;
kernLeft = A;
kernRight = N;
lastChange = "2023-03-06 21:15:41 +0000";
layers = (
{
layerId = m01;
shapes = (
{
closed = 1;
nodes = (
(664,560,ls),
(664,605,o),
(629,640,o),
(585,640,cs),
(541,640,o),
(505,605,o),
(505,560,cs),
(505,240,ls),
(505,219,o),
(489,200,o),
(465,200,cs),
(444,200,o),
(425,219,o),
(425,240,cs),
(425,560,ls),
(425,605,o),
(390,640,o),
(346,640,cs),
(266,640,ls),
(222,640,o),
(186,605,o),
(186,560,cs),
(186,516,o),
(151,480,o),
(107,480,cs),
(62,480,o),
(26,444,o),
(26,400,cs),
(26,81,ls),
(26,36,o),
(62,0,o),
(107,0,cs),
(151,0,o),
(186,36,o),
(186,81,cs),
(186,400,ls),
(186,422,o),
(203,440,o),
(226,440,cs),
(248,440,o),
(266,422,o),
(266,400,cs),
(266,81,ls),
(266,36,o),
(302,0,o),
(346,0,cs),
(425,0,ls),
(469,0,o),
(505,36,o),
(505,81,cs),
(505,125,o),
(541,160,o),
(585,160,cs),
(629,160,o),
(664,196,o),
(664,240,cs)
);
}
);
width = 691;
}
);
note = N;
unicode = (78,209);
},
{
glyphname = O;
kernLeft = C;
kernRight = D;
lastChange = "2023-03-06 21:15:41 +0000";
layers = (
{
layerId = m01;
shapes = (
{
closed = 1;
nodes = (
(293,0,ls),
(338,0,o),
(374,36,o),
(374,81,cs),
(374,125,o),
(409,160,o),
(453,160,cs),
(497,160,o),
(533,196,o),
(533,240,cs),
(533,400,ls),
(533,444,o),
(497,480,o),
(453,480,cs),
(409,480,o),
(374,516,o),
(374,560,cs),
(374,605,o),
(338,640,o),
(293,640,cs),
(253,640,ls),
(209,640,o),
(173,605,o),
(173,560,cs),
(173,516,o),
(138,480,o),
(94,480,cs),
(50,480,o),
(14,444,o),
(14,400,cs),
(14,240,ls),
(14,196,o),
(50,160,o),
(94,160,cs),
(138,160,o),
(173,125,o),
(173,81,cs),
(173,36,o),
(209,0,o),
(253,0,cs)
);
},
{
closed = 1;
nodes = (
(293,480,ls),
(338,480,o),
(374,444,o),
(374,400,cs),
(374,240,ls),
(374,196,o),
(338,160,o),
(293,160,cs),
(253,160,ls),
(209,160,o),
(173,196,o),
(173,240,cs),
(173,400,ls),
(173,444,o),
(209,480,o),
(253,480,cs)
);
}
);
width = 547;
}
);
note = O;
unicode = (79,210,211,212,213,214,216);
},
{
glyphname = P;
kernLeft = A;
kernRight = P;
lastChange = "2023-03-06 21:15:41 +0000";
layers = (
{
layerId = m01;
shapes = (
{
closed = 1;
nodes = (
(549,321,o),
(585,356,o),
(585,400,cs),
(585,444,o),
(549,480,o),
(505,480,cs),
(461,480,o),
(425,516,o),
(425,560,cs),
(425,605,o),
(390,640,o),
(346,640,cs),
(266,640,ls),
(222,640,o),
(186,605,o),
(186,560,cs),
(186,516,o),
(151,480,o),
(106,480,cs),
(62,480,o),
(26,444,o),
(26,400,cs),
(26,81,ls),
(26,36,o),
(62,0,o),
(106,0,cs),
(151,0,o),
(186,36,o),
(186,81,cs),
(186,400,ls),
(186,444,o),
(222,480,o),
(266,480,cs),
(346,480,ls),
(390,480,o),
(425,444,o),
(425,400,cs),
(425,356,o),
(390,321,o),
(346,321,cs),
(306,321,ls),
(262,321,o),
(226,284,o),
(226,240,cs),
(226,196,o),
(262,160,o),
(306,160,cs),
(346,160,ls),
(390,160,o),
(425,196,o),
(425,240,cs),
(425,284,o),
(461,321,o),
(505,321,cs)
);
}
);
width = 585;
}
);
note = P;
unicode = 80;
},
{
glyphname = Q;
kernLeft = C;
kernRight = Q;
lastChange = "2023-03-06 21:15:41 +0000";
layers = (
{
layerId = m01;
shapes = (
{
closed = 1;
nodes = (
(534,400,ls),
(534,444,o),
(498,480,o),
(454,480,cs),
(410,480,o),
(375,516,o),
(375,560,cs),
(375,605,o),
(339,640,o),
(295,640,cs),
(255,640,ls),
(210,640,o),
(174,605,o),
(174,560,cs),
(174,516,o),
(140,480,o),
(95,480,cs),
(51,480,o),
(15,444,o),
(15,400,cs),
(15,240,ls),
(15,196,o),
(51,160,o),
(95,160,cs),
(140,160,o),
(174,125,o),
(174,81,cs),
(174,36,o),
(210,0,o),
(255,0,cs),
(494,0,ls),
(538,0,o),
(574,36,o),
(574,81,cs),
(574,125,o),
(538,160,o),
(494,160,cs),
(454,160,ls),
(431,160,o),
(414,177,o),
(414,200,cs),
(414,224,o),
(431,240,o),
(454,240,cs),
(498,240,o),
(534,276,o),
(534,321,cs)
);
},
{
closed = 1;
nodes = (
(295,480,ls),
(339,480,o),
(375,444,o),
(375,400,cs),
(375,240,ls),
(375,196,o),
(339,160,o),
(295,160,cs),
(255,160,ls),
(210,160,o),
(174,196,o),
(174,240,cs),
(174,400,ls),
(174,444,o),
(210,480,o),
(255,480,cs)
);
}
);
width = 583;
}
);
note = Q;
unicode = 81;
},
{
glyphname = R;
kernLeft = A;
kernRight = R;
lastChange = "2023-03-06 21:15:41 +0000";
layers = (
{
layerId = m01;
shapes = (
{
closed = 1;
nodes = (
(549,321,o),
(585,356,o),
(585,400,cs),
(585,444,o),
(549,480,o),
(504,480,cs),
(460,480,o),
(424,516,o),
(424,560,cs),
(424,605,o),
(389,640,o),
(345,640,cs),
(265,640,ls),
(221,640,o),
(185,605,o),
(185,560,cs),
(185,516,o),
(150,480,o),
(106,480,cs),
(62,480,o),
(26,444,o),
(26,400,cs),
(26,81,ls),
(26,36,o),
(62,0,o),
(106,0,cs),
(150,0,o),
(185,36,o),
(185,81,cs),
(185,400,ls),
(185,444,o),
(221,480,o),
(265,480,cs),
(345,480,ls),
(389,480,o),
(424,444,o),
(424,400,cs),
(424,356,o),
(389,321,o),
(345,321,cs),
(305,321,ls),
(261,321,o),
(225,284,o),
(225,240,cs),
(225,196,o),
(261,160,o),
(305,160,cs),
(345,160,ls),
(389,160,o),
(424,125,o),
(424,81,cs),
(424,36,o),
(460,0,o),
(504,0,cs),
(549,0,o),
(585,36,o),
(585,81,cs),
(585,125,o),
(549,160,o),
(504,160,cs),
(460,160,o),
(424,196,o),
(424,240,cs),
(424,284,o),
(460,321,o),
(504,321,cs)
);
}
);
width = 599;
}
);
note = R;
unicode = 82;
},
{
glyphname = S;
kernLeft = S;
kernRight = S;
lastChange = "2023-03-06 21:15:41 +0000";
layers = (
{
layerId = m01;
shapes = (
{
closed = 1;
nodes = (
(241,196,o),
(205,160,o),
(161,160,cs),
(82,160,ls),
(37,160,o),
(1,125,o),
(1,81,cs),
(1,36,o),
(37,0,o),
(82,0,cs),
(321,0,ls),
(365,0,o),
(400,36,o),
(400,81,cs),
(400,240,ls),
(400,284,o),
(365,321,o),
(321,321,cs),
(277,321,o),
(241,356,o),
(241,400,cs),
(241,444,o),
(277,480,o),
(321,480,cs),
(400,480,ls),
(444,480,o),
(480,516,o),
(480,560,cs),
(480,605,o),
(444,640,o),
(400,640,cs),
(321,640,ls),
(277,640,o),
(241,605,o),
(241,560,cs),
(241,516,o),
(205,480,o),
(161,480,cs),
(117,480,o),
(82,444,o),
(82,400,cs),
(82,356,o),
(117,321,o),
(161,321,cs),
(205,321,o),
(241,284,o),
(241,240,cs)
);
}
);
width = 484;
}
);
note = S;
unicode = 83;
},
{
glyphname = T;
kernLeft = T;
kernRight = T;
lastChange = "2023-03-06 21:15:41 +0000";
layers = (
{
layerId = m01;
shapes = (
{
closed = 1;
nodes = (
(316,440,ls),
(316,464,o),
(333,480,o),
(357,480,cs),
(396,480,ls),
(440,480,o),
(476,516,o),
(476,560,cs),
(476,605,o),
(440,640,o),
(396,640,cs),
(77,640,ls),
(33,640,o),
(-3,605,o),
(-3,560,cs),
(-3,516,o),
(33,480,o),
(77,480,cs),
(117,480,ls),
(140,480,o),
(156,464,o),
(156,440,cs),
(156,240,ls),
(156,196,o),
(192,160,o),
(236,160,cs),
(280,160,o),
(316,125,o),
(316,81,cs),
(316,36,o),
(351,0,o),
(396,0,cs),
(440,0,o),
(476,36,o),
(476,81,cs),
(476,125,o),
(440,160,o),
(396,160,cs),
(351,160,o),
(316,196,o),
(316,240,cs)
);
}
);
width = 489;
}
);
note = T;
unicode = 84;
},
{
glyphname = U;
kernLeft = L;
kernRight = H;
lastChange = "2023-03-06 21:15:41 +0000";
layers = (
{
layerId = m01;
shapes = (
{
closed = 1;
nodes = (
(425,0,ls),
(469,0,o),
(505,36,o),
(505,81,cs),
(505,560,ls),
(505,605,o),
(469,640,o),
(425,640,cs),
(381,640,o),
(346,605,o),
(346,560,cs),
(346,240,ls),
(346,196,o),
(310,160,o),
(266,160,cs),
(222,160,o),
(186,196,o),
(186,240,cs),
(186,560,ls),
(186,605,o),
(151,640,o),
(106,640,cs),
(62,640,o),
(26,605,o),
(26,560,cs),
(26,240,ls),
(26,196,o),
(62,160,o),
(106,160,cs),
(151,160,o),
(186,125,o),
(186,81,cs),
(186,36,o),
(222,0,o),
(266,0,cs)
);
}
);
width = 543;
}
);
note = U;
unicode = (85,217,218,219,220);
},
{
glyphname = V;
kernLeft = V;
kernRight = V;
lastChange = "2023-03-06 21:15:41 +0000";
layers = (
{
layerId = m01;
shapes = (
{
closed = 1;
nodes = (
(437,120,ls),
(437,163,o),
(473,199,o),
(517,199,cs),
(561,199,o),
(596,235,o),
(596,280,cs),
(596,439,ls),
(596,463,o),
(613,479,o),
(636,479,cs),
(680,479,o),
(716,515,o),
(716,560,cs),
(716,604,o),
(680,639,o),
(636,639,cs),
(517,639,ls),
(473,639,o),
(437,604,o),
(437,560,cs),
(437,320,ls),
(437,276,o),
(401,240,o),
(358,240,cs),
(313,240,o),
(277,276,o),
(277,320,cs),
(277,560,ls),
(277,604,o),
(241,639,o),
(197,639,cs),
(78,639,ls),
(34,639,o),
(-2,604,o),
(-2,560,cs),
(-2,515,o),
(34,479,o),
(78,479,cs),
(101,479,o),
(118,463,o),
(118,439,cs),
(118,280,ls),
(118,235,o),
(153,199,o),
(197,199,cs),
(241,199,o),
(277,163,o),
(277,119,cs),
(277,80,ls),
(277,36,o),
(313,0,o),
(358,0,cs),
(401,0,o),
(437,36,o),
(437,80,cs)
);
}
);
width = 714;
}
);
note = V;
unicode = 86;
},
{
glyphname = W;
kernLeft = L;
kernRight = N;
lastChange = "2023-03-06 21:15:41 +0000";
layers = (
{
layerId = m01;
shapes = (
{
closed = 1;
nodes = (
(665,560,ls),
(665,604,o),
(630,639,o),
(585,639,cs),
(541,639,o),
(505,604,o),
(505,560,cs),
(505,199,ls),
(505,178,o),
(489,159,o),
(465,159,cs),
(444,159,o),
(425,178,o),
(425,199,cs),
(425,479,ls),
(425,524,o),
(390,560,o),
(346,560,cs),
(302,560,o),
(266,524,o),
(266,479,cs),
(266,199,ls),
(266,178,o),
(248,159,o),
(226,159,cs),
(203,159,o),
(186,178,o),
(186,199,cs),
(186,560,ls),
(186,604,o),
(151,639,o),
(107,639,cs),
(62,639,o),
(26,604,o),
(26,560,cs),
(26,240,ls),
(26,195,o),
(62,159,o),
(107,159,cs),
(151,159,o),
(186,124,o),
(186,80,cs),
(186,36,o),
(222,0,o),
(266,0,cs),
(425,0,ls),
(469,0,o),
(505,36,o),
(505,80,cs),
(505,124,o),
(541,159,o),
(585,159,cs),
(630,159,o),
(665,195,o),
(665,240,cs)
);
}
);
width = 692;
}
);
note = W;
unicode = 87;
},
{
glyphname = X;
kernRight = K;
lastChange = "2023-03-06 21:15:41 +0000";
layers = (
{
layerId = m01;
shapes = (
{
closed = 1;
nodes = (
(505,560,ls),
(505,604,o),
(469,639,o),
(425,639,cs),
(381,639,o),
(346,604,o),
(346,560,cs),
(346,479,ls),
(346,435,o),
(310,399,o),
(266,399,cs),
(221,399,o),
(185,435,o),
(185,479,cs),
(185,560,ls),
(185,604,o),
(150,639,o),
(106,639,cs),
(62,639,o),
(26,604,o),
(26,560,cs),
(26,479,ls),
(26,463,o),
(31,448,o),
(40,435,cs),
(56,414,o),
(78,399,o),
(106,399,cs),
(151,399,o),
(185,364,o),
(185,320,cs),
(185,276,o),
(151,240,o),
(106,240,cs),
(92,240,o),
(80,237,o),
(69,231,cs),
(46,218,o),
(26,193,o),
(26,159,cs),
(26,80,ls),
(26,36,o),
(62,0,o),
(106,0,cs),
(150,0,o),
(185,36,o),
(185,80,cs),
(185,159,ls),
(185,203,o),
(221,240,o),
(266,240,cs),
(310,240,o),
(346,203,o),
(346,159,cs),
(346,80,ls),
(346,36,o),
(381,0,o),
(425,0,cs),
(469,0,o),
(505,36,o),
(505,80,cs),
(505,159,ls),
(505,177,o),
(501,191,o),
(492,204,cs),
(476,226,o),
(453,240,o),
(425,240,cs),
(381,240,o),
(346,276,o),
(346,320,cs),
(346,364,o),
(381,399,o),
(425,399,cs),
(439,399,o),
(452,402,o),
(463,410,c),
(487,422,o),
(505,447,o),
(505,479,cs)
);
}
);
width = 531;
}
);
note = X;
unicode = 88;
},
{
glyphname = Y;
kernLeft = Y;
kernRight = Y;
lastChange = "2023-03-06 21:15:41 +0000";
layers = (
{
layerId = m01;
shapes = (
{
closed = 1;
nodes = (
(164,80,ls),
(164,36,o),
(200,0,o),
(244,0,cs),
(288,0,o),
(324,36,o),
(324,80,cs),
(324,320,ls),
(324,364,o),
(359,399,o),
(403,399,cs),
(417,399,o),
(430,402,o),
(441,410,c),
(465,422,o),
(483,447,o),
(483,479,cs),
(483,560,ls),
(483,604,o),
(447,639,o),
(403,639,cs),
(359,639,o),
(324,604,o),
(324,560,cs),
(324,479,ls),
(324,435,o),
(288,399,o),
(244,399,cs),
(200,399,o),
(164,435,o),
(164,479,cs),
(164,560,ls),
(164,604,o),
(129,639,o),
(85,639,cs),
(40,639,o),
(4,604,o),
(4,560,cs),
(4,479,ls),
(4,463,o),
(9,448,o),
(18,435,cs),
(34,414,o),
(57,399,o),
(85,399,cs),
(129,399,o),
(164,364,o),
(164,320,cs)
);
}
);
width = 488;
}
);
note = Y;
unicode = (89,221,376);
},
{
glyphname = Z;
kernLeft = Z;
kernRight = Z;
lastChange = "2023-03-06 21:15:41 +0000";
layers = (
{
layerId = m01;
shapes = (
{
closed = 1;
nodes = (
(246,479,ls),
(290,479,o),
(326,516,o),
(326,560,cs),
(326,604,o),
(290,639,o),
(246,639,cs),
(86,639,ls),
(42,639,o),
(6,604,o),
(6,560,cs),
(6,516,o),
(42,479,o),
(86,479,cs)
);
},
{
closed = 1;
nodes = (
(286,159,ls),
(241,159,o),
(205,195,o),
(205,240,cs),
(205,284,o),
(169,320,o),
(126,320,cs),
(82,320,o),
(46,284,o),
(46,240,cs),
(46,195,o),
(82,159,o),
(126,159,cs),
(169,159,o),
(205,124,o),
(205,80,cs),
(205,36,o),
(241,0,o),
(286,0,cs),
(445,0,ls),
(489,0,o),
(525,36,o),
(525,80,cs),
(525,124,o),
(489,159,o),
(445,159,cs)
);
},
{
closed = 1;
nodes = (
(489,439,o),
(525,475,o),
(525,520,cs),
(525,564,o),
(489,600,o),
(445,600,cs),
(401,600,o),
(366,564,o),
(366,520,cs),
(366,475,o),
(330,439,o),
(286,439,cs),
(241,439,o),
(205,403,o),
(205,360,cs),
(205,316,o),
(241,280,o),
(286,280,cs),
(330,280,o),
(366,316,o),
(366,360,cs),
(366,403,o),
(401,439,o),
(445,439,cs)
);
}
);
width = 539;
}
);
note = Z;
unicode = 90;
},
{
glyphname = bracketleft;
lastChange = "2023-03-06 21:15:41 +0000";
layers = (
{
layerId = m01;
shapes = (
{
closed = 1;
nodes = (
(116,16,o),
(134,0,o),
(156,0,cs),
(315,0,ls),
(360,0,o),
(395,36,o),
(395,80,cs),
(395,124,o),
(360,159,o),
(315,159,cs),
(235,159,ls),
(214,159,o),
(195,178,o),
(195,199,cs),
(195,439,ls),
(195,463,o),
(214,480,o),
(235,480,cs),
(315,480,ls),
(360,480,o),
(395,516,o),
(395,560,cs),
(395,604,o),
(360,639,o),
(315,639,cs),
(156,639,ls),
(134,639,o),
(116,623,o),
(116,600,cs),
(116,576,o),
(99,560,o),
(76,560,cs),
(52,560,o),
(36,541,o),
(36,520,cs),
(36,119,ls),
(36,98,o),
(52,80,o),
(76,80,cs),
(99,80,o),
(116,63,o),
(116,40,cs)
);
}
);
width = 418;
}
);
note = bracketleft;
unicode = 91;
},
{
glyphname = backslash;
kernLeft = backslash;
lastChange = "2023-03-06 21:15:41 +0000";
layers = (
{
layerId = m01;
shapes = (
{
closed = 1;
nodes = (
(492,159,ls),
(492,177,o),
(487,191,o),
(478,204,cs),
(462,226,o),
(439,240,o),
(411,240,cs),
(367,240,o),
(332,276,o),
(332,320,cs),
(332,364,o),
(296,399,o),
(252,399,cs),
(208,399,o),
(172,435,o),
(172,479,cs),
(172,560,ls),
(172,604,o),
(137,639,o),
(93,639,cs),
(49,639,o),
(13,604,o),
(13,560,cs),
(13,480,ls),
(13,464,o),
(17,448,o),
(26,435,cs),
(42,414,o),
(65,399,o),
(93,399,cs),
(137,399,o),
(172,364,o),
(172,320,cs),
(172,276,o),
(208,240,o),
(252,240,cs),
(296,240,o),
(332,204,o),
(332,159,cs),
(332,80,ls),
(332,36,o),
(367,0,o),
(411,0,cs),
(456,0,o),
(492,36,o),
(492,80,cs)
);
}
);
width = 506;
}
);
note = backslash;
unicode = 92;
},
{
glyphname = bracketright;
kernLeft = bracketright;
lastChange = "2023-03-06 21:15:41 +0000";
layers = (
{
layerId = m01;
shapes = (
{
closed = 1;
nodes = (
(381,520,ls),
(381,541,o),
(363,560,o),
(342,560,cs),
(318,560,o),
(302,576,o),
(302,600,cs),
(302,623,o),
(284,639,o),
(261,639,cs),
(102,639,ls),
(58,639,o),
(22,604,o),
(22,560,cs),
(22,516,o),
(58,480,o),
(102,480,cs),
(181,480,ls),
(205,480,o),
(221,463,o),
(221,439,cs),
(221,199,ls),
(221,178,o),
(205,159,o),
(181,159,cs),
(102,159,ls),
(58,159,o),
(22,124,o),
(22,80,cs),
(22,36,o),
(58,0,o),
(102,0,cs),
(261,0,ls),
(284,0,o),
(302,16,o),
(302,40,cs),
(302,63,o),
(318,80,o),
(342,80,cs),
(363,80,o),
(381,98,o),
(381,119,cs)
);
}
);
width = 418;
}
);
note = bracketright;
unicode = 93;
},
{
glyphname = a;
kernLeft = a;
kernRight = a;
lastChange = "2023-03-06 21:15:41 +0000";
layers = (
{
layerId = m01;
shapes = (
{
closed = 1;
nodes = (
(215,480,o),
(179,444,o),
(179,399,cs),
(179,355,o),
(144,320,o),
(100,320,cs),
(56,320,o),
(20,284,o),
(20,240,cs),
(20,80,ls),
(20,36,o),
(56,0,o),
(100,0,cs),
(219,0,ls),
(264,0,o),
(299,36,o),
(299,80,cs),
(299,124,o),
(264,159,o),
(219,159,cs),
(198,159,o),
(179,177,o),
(179,200,cs),
(179,240,ls),
(179,284,o),
(215,320,o),
(259,320,cs),
(304,320,o),
(340,284,o),
(340,240,cs),
(340,80,ls),
(340,36,o),
(375,0,o),
(419,0,cs),
(463,0,o),
(499,36,o),
(499,80,cs),
(499,240,ls),
(499,284,o),
(463,320,o),
(419,320,cs),
(375,320,o),
(340,355,o),
(340,399,cs),
(340,444,o),
(304,480,o),
(259,480,cs)
);
}
);
width = 519;
}
);
note = a;
unicode = (97,224,225,226,227,228,229);
},
{
glyphname = b;
kernLeft = L;
lastChange = "2023-03-06 21:15:41 +0000";
layers = (
{
layerId = m01;
shapes = (
{
closed = 1;
nodes = (
(341,240,ls),
(341,195,o),
(305,159,o),
(260,159,cs),
(216,159,o),
(180,195,o),
(180,240,cs),
(180,560,ls),
(180,604,o),
(145,639,o),
(101,639,cs),
(57,639,o),
(21,604,o),
(21,560,cs),
(21,240,ls),
(21,195,o),
(57,159,o),
(101,159,cs),
(145,159,o),
(180,124,o),
(180,80,cs),
(180,36,o),
(216,0,o),
(260,0,cs),
(305,0,o),
(341,36,o),
(341,80,cs),
(341,124,o),
(375,159,o),
(420,159,cs),
(464,159,o),
(500,195,o),
(500,240,cs),
(500,399,ls),
(500,444,o),
(464,480,o),
(420,480,cs),
(300,480,ls),
(256,480,o),
(220,444,o),
(220,399,cs),
(220,355,o),
(256,320,o),
(300,320,cs),
(323,320,o),
(341,301,o),
(341,280,cs)
);
}
);
width = 520;
}
);
note = b;
unicode = 98;
},
{
glyphname = c;
kernLeft = c;
lastChange = "2023-03-06 21:15:41 +0000";
layers = (
{
layerId = m01;
shapes = (
{
closed = 1;
nodes = (
(166,36,o),
(202,0,o),
(246,0,cs),
(405,0,ls),
(449,0,o),
(485,36,o),
(485,80,cs),
(485,124,o),
(449,159,o),
(405,159,cs),
(246,159,ls),
(202,159,o),
(166,195,o),
(166,240,cs),
(166,284,o),
(202,320,o),
(246,320,cs),
(286,320,ls),
(307,320,o),
(326,301,o),
(326,280,cs),
(326,236,o),
(361,200,o),
(405,200,cs),
(449,200,o),
(485,236,o),
(485,280,cs),
(485,399,ls),
(485,444,o),
(449,480,o),
(405,480,cs),
(246,480,ls),
(202,480,o),
(166,444,o),
(166,399,cs),
(166,355,o),
(131,320,o),
(87,320,cs),
(42,320,o),
(6,284,o),
(6,240,cs),
(6,195,o),
(42,159,o),
(87,159,cs),
(131,159,o),
(166,124,o),
(166,80,cs)
);
}
);
width = 514;
}
);
note = c;
unicode = (99,231);
},
{
glyphname = d;
kernLeft = d;
kernRight = N;
lastChange = "2023-03-06 21:15:41 +0000";
layers = (
{
layerId = m01;
shapes = (
{
closed = 1;
nodes = (
(300,444,o),
(264,480,o),
(220,480,cs),
(101,480,ls),
(56,480,o),
(20,444,o),
(20,399,cs),
(20,240,ls),
(20,195,o),
(56,159,o),
(101,159,cs),
(145,159,o),
(180,124,o),
(180,80,cs),
(180,36,o),
(216,0,o),
(260,0,cs),
(304,0,o),
(340,36,o),
(340,80,cs),
(340,124,o),
(375,159,o),
(419,159,cs),
(463,159,o),
(499,195,o),
(499,240,cs),
(499,560,ls),
(499,604,o),
(463,639,o),
(419,639,cs),
(375,639,o),
(340,604,o),
(340,560,cs),
(340,240,ls),
(340,195,o),
(304,159,o),
(260,159,cs),
(216,159,o),
(180,195,o),
(180,240,cs),
(180,280,ls),
(180,301,o),
(197,320,o),
(220,320,cs),
(264,320,o),
(300,355,o),
(300,399,cs)
);
}
);
width = 520;
}
);
note = d;
unicode = 100;
},
{
glyphname = e;
kernLeft = a;
kernRight = e;
lastChange = "2023-03-06 21:15:41 +0000";
layers = (
{
layerId = m01;
shapes = (
{
closed = 1;
nodes = (
(340,399,ls),
(340,444,o),
(304,480,o),
(260,480,cs),
(216,480,o),
(180,444,o),
(180,399,cs),
(180,355,o),
(145,320,o),
(100,320,cs),
(56,320,o),
(20,284,o),
(20,240,cs),
(20,80,ls),
(20,36,o),
(56,0,o),
(100,0,cs),
(419,0,ls),
(463,0,o),
(499,36,o),
(499,80,cs),
(499,124,o),
(463,159,o),
(419,159,cs),
(375,159,o),
(340,195,o),
(340,240,cs)
);
},
{
closed = 1;
nodes = (
(260,155,o),
(224,119,o),
(180,119,cs),
(135,119,o),
(100,155,o),
(100,200,cs),
(100,244,o),
(135,280,o),
(180,280,cs),
(224,280,o),
(260,244,o),
(260,200,cs)
);
}
);
width = 504;
}
);
note = e;
unicode = (101,232,233,234,235);
},
{
glyphname = f;
lastChange = "2023-03-06 21:15:41 +0000";
layers = (
{
layerId = m01;
shapes = (
{
closed = 1;
nodes = (
(354,284,o),
(318,320,o),
(274,320,cs),
(230,320,o),
(194,355,o),
(194,399,cs),
(194,444,o),
(230,480,o),
(274,480,cs),
(318,480,o),
(354,516,o),
(354,560,cs),
(354,604,o),
(318,639,o),
(274,639,cs),
(230,639,o),
(194,604,o),
(194,560,cs),
(194,516,o),
(159,480,o),
(114,480,cs),
(70,480,o),
(34,444,o),
(34,399,cs),
(34,80,ls),
(34,36,o),
(70,0,o),
(114,0,cs),
(159,0,o),
(194,36,o),
(194,80,cs),
(194,124,o),
(230,159,o),
(274,159,cs),
(318,159,o),
(354,195,o),
(354,240,cs)
);
}
);
width = 362;
}
);
note = f;
unicode = 102;
},
{
glyphname = g;
kernLeft = a;
kernRight = a;
lastChange = "2023-03-06 21:15:41 +0000";
layers = (
{
layerId = m01;
shapes = (
{
closed = 1;
nodes = (
(56,320,o),
(20,284,o),
(20,240,cs),
(20,80,ls),
(20,36,o),
(56,0,o),
(100,0,cs),
(220,0,ls),
(264,0,o),
(300,36,o),
(300,80,cs),
(300,124,o),
(264,159,o),
(220,159,cs),
(197,159,o),
(180,177,o),
(180,200,cs),
(180,240,ls),
(180,284,o),
(216,320,o),
(260,320,cs),
(304,320,o),
(340,284,o),
(340,240,cs),
(340,0,ls),
(340,-44,o),
(304,-81,o),
(260,-81,cs),
(216,-81,o),
(180,-116,o),
(180,-160,cs),
(180,-204,o),
(216,-240,o),
(260,-240,cs),
(304,-240,o),
(340,-204,o),
(340,-160,cs),
(340,-116,o),
(375,-81,o),
(419,-81,cs),
(463,-81,o),
(499,-44,o),
(499,0,cs),
(499,240,ls),
(499,284,o),
(463,320,o),
(419,320,cs),
(375,320,o),
(340,355,o),
(340,399,cs),
(340,444,o),
(304,480,o),
(260,480,cs),
(216,480,o),
(180,444,o),
(180,399,cs),
(180,355,o),
(145,320,o),
(100,320,cs)
);
}
);
width = 521;
}
);
note = g;
unicode = 103;
},
{
glyphname = h;
kernRight = h;
lastChange = "2023-03-06 21:15:41 +0000";
layers = (
{
layerId = m01;
shapes = (
{
closed = 1;
nodes = (
(194,240,ls),
(194,284,o),
(230,320,o),
(274,320,cs),
(319,320,o),
(355,284,o),
(355,240,cs),
(352,80,ls),
(352,36,o),
(387,0,o),
(432,0,cs),
(476,0,o),
(512,36,o),
(512,80,cs),
(512,320,ls),
(512,364,o),
(476,399,o),
(432,399,cs),
(274,399,ls),
(230,399,o),
(194,435,o),
(194,480,cs),
(194,560,ls),
(194,604,o),
(159,639,o),
(115,639,cs),
(71,639,o),
(35,604,o),
(35,560,cs),
(35,80,ls),
(35,36,o),
(71,0,o),
(115,0,cs),
(159,0,o),
(194,36,o),
(194,80,cs)
);
}
);
width = 540;
}
);
note = h;
unicode = 104;
},
{
glyphname = i;
lastChange = "2023-03-06 21:15:41 +0000";
layers = (
{
layerId = m01;
shapes = (
{
closed = 1;
nodes = (
(141,428,o),
(150,447,o),
(165,463,cs),
(181,479,o),
(188,499,o),
(188,520,cs),
(188,540,o),
(181,561,o),
(165,576,cs),
(150,591,o),
(130,600,o),
(109,600,cs),
(87,600,o),
(68,591,o),
(52,576,cs),
(36,561,o),
(29,540,o),
(29,520,cs),
(29,499,o),
(36,479,o),
(52,463,cs),
(68,447,o),
(76,428,o),
(76,406,cs),
(76,385,o),
(68,366,o),
(52,350,cs),
(37,335,o),
(29,317,o),
(29,293,cs),
(29,80,ls),
(29,36,o),
(65,0,o),
(109,0,cs),
(153,0,o),
(188,36,o),
(188,80,cs),
(188,293,ls),
(188,317,o),
(180,335,o),
(165,350,cs),
(150,366,o),
(141,385,o),
(141,406,cs)
);
}
);
width = 218;
}
);
note = i;
unicode = (105,236,237,238,239);
},
{
glyphname = j;
lastChange = "2023-03-06 21:15:41 +0000";
layers = (
{
layerId = m01;
shapes = (
{
closed = 1;
nodes = (
(145,467,o),
(152,487,o),
(168,504,cs),
(183,519,o),
(192,538,o),
(192,560,cs),
(192,604,o),
(156,639,o),
(112,639,cs),
(67,639,o),
(31,604,o),
(31,560,cs),
(31,538,o),
(39,519,o),
(55,504,cs),
(71,487,o),
(78,467,o),
(78,446,cs),
(78,426,o),
(71,405,o),
(55,390,cs),
(39,375,o),
(31,356,o),
(31,333,cs),
(31,0,ls),
(31,-44,o),
(-4,-81,o),
(-48,-81,cs),
(-92,-81,o),
(-128,-116,o),
(-128,-160,cs),
(-128,-204,o),
(-92,-240,o),
(-48,-240,cs),
(-4,-240,o),
(31,-204,o),
(31,-160,cs),
(31,-116,o),
(67,-81,o),
(111,-81,cs),
(156,-81,o),
(192,-44,o),
(192,0,cs),
(192,333,ls),
(192,356,o),
(183,375,o),
(168,390,cs),
(152,405,o),
(145,426,o),
(145,446,cs)
);
}
);
width = 224;
}
);
note = j;
unicode = 106;
},
{
glyphname = k;
kernRight = k;
lastChange = "2023-03-06 21:15:41 +0000";
layers = (
{
layerId = m01;
shapes = (
{
closed = 1;
nodes = (
(356,285,o),
(391,321,o),
(435,321,cs),
(479,321,o),
(515,356,o),
(515,400,cs),
(515,445,o),
(479,481,o),
(435,481,cs),
(391,481,o),
(356,445,o),
(356,400,cs),
(356,356,o),
(320,321,o),
(275,321,cs),
(231,321,o),
(195,356,o),
(195,400,cs),
(195,558,ls),
(195,602,o),
(160,638,o),
(116,638,cs),
(71,638,o),
(35,602,o),
(35,558,cs),
(35,80,ls),
(35,36,o),
(71,0,o),
(116,0,cs),
(160,0,o),
(195,36,o),
(195,80,cs),
(195,125,o),
(231,160,o),
(275,160,cs),
(320,160,o),
(356,125,o),
(356,80,cs),
(356,36,o),
(391,0,o),
(435,0,cs),
(479,0,o),
(515,36,o),
(515,80,cs),
(515,125,o),
(479,160,o),
(435,160,cs),
(391,160,o),
(356,196,o),
(356,240,cs)
);
}
);
width = 534;
}
);
note = k;
unicode = 107;
},
{
glyphname = l;
kernLeft = L;
kernRight = l;
lastChange = "2023-03-06 21:15:41 +0000";
layers = (
{
layerId = m01;
shapes = (
{
closed = 1;
nodes = (
(180,36,o),
(216,0,o),
(261,0,cs),
(305,0,o),
(341,36,o),
(341,80,cs),
(341,124,o),
(305,159,o),
(261,159,cs),
(216,159,o),
(180,195,o),
(180,240,cs),
(180,560,ls),
(180,604,o),
(145,639,o),
(101,639,cs),
(57,639,o),
(21,604,o),
(21,560,cs),
(21,240,ls),
(21,195,o),
(57,159,o),
(101,159,cs),
(145,159,o),
(180,124,o),
(180,80,cs)
);
}
);
width = 345;
}
);
note = l;
unicode = 108;
},
{
glyphname = m;
kernLeft = a;
kernRight = a;
lastChange = "2023-03-06 21:15:41 +0000";
layers = (
{
layerId = m01;
shapes = (
{
closed = 1;
nodes = (
(383,159,o),
(418,195,o),
(418,240,cs),
(418,261,o),
(437,280,o),
(458,280,cs),
(482,280,o),
(499,261,o),
(499,240,cs),
(499,80,ls),
(499,36,o),
(535,0,o),
(579,0,cs),
(623,0,o),
(658,36,o),
(658,80,cs),
(658,240,ls),
(658,284,o),
(623,320,o),
(579,320,cs),
(535,320,o),
(499,355,o),
(499,399,cs),
(499,444,o),
(463,480,o),
(418,480,cs),
(259,480,ls),
(215,480,o),
(179,444,o),
(179,399,cs),
(179,355,o),
(144,320,o),
(100,320,cs),
(56,320,o),
(20,284,o),
(20,240,cs),
(20,80,ls),
(20,36,o),
(56,0,o),
(100,0,cs),
(144,0,o),
(179,36,o),
(179,80,cs),
(179,240,ls),
(179,261,o),
(196,280,o),
(219,280,cs),
(243,280,o),
(259,261,o),
(259,240,cs),
(259,195,o),
(295,159,o),
(339,159,cs)
);
}
);
width = 679;
}
);
note = m;
unicode = 109;
},
{
glyphname = n;
kernLeft = a;
kernRight = a;
lastChange = "2023-03-06 21:15:41 +0000";
layers = (
{
layerId = m01;
shapes = (
{
closed = 1;
nodes = (
(339,444,o),
(303,480,o),
(259,480,cs),
(215,480,o),
(179,444,o),
(179,399,cs),
(179,355,o),
(144,320,o),
(100,320,cs),
(56,320,o),
(20,284,o),
(20,240,cs),
(20,80,ls),
(20,36,o),
(56,0,o),
(100,0,cs),
(144,0,o),
(179,36,o),
(179,80,cs),
(179,240,ls),
(179,284,o),
(215,320,o),
(259,320,cs),
(303,320,o),
(339,284,o),
(339,240,cs),
(339,80,ls),
(339,36,o),
(374,0,o),
(418,0,cs),
(462,0,o),
(498,36,o),
(498,80,cs),
(498,240,ls),
(498,284,o),
(462,320,o),
(418,320,cs),
(374,320,o),
(339,355,o),
(339,399,cs)
);
}
);
width = 518;
}
);
note = n;
unicode = (110,241);
},
{
glyphname = o;
kernLeft = c;
kernRight = o;
lastChange = "2023-03-06 21:15:41 +0000";
layers = (
{
layerId = m01;
shapes = (
{
closed = 1;
nodes = (
(166,36,o),
(202,0,o),
(246,0,cs),
(290,0,o),
(326,36,o),
(326,80,cs),
(326,124,o),
(361,159,o),
(405,159,cs),
(449,159,o),
(485,195,o),
(485,240,cs),
(485,284,o),
(449,320,o),
(405,320,cs),
(361,320,o),
(326,355,o),
(326,399,cs),
(326,444,o),
(290,480,o),
(246,480,cs),
(202,480,o),
(166,444,o),
(166,399,cs),
(166,355,o),
(131,320,o),
(87,320,cs),
(42,320,o),
(6,284,o),
(6,240,cs),
(6,195,o),
(42,159,o),
(87,159,cs),
(131,159,o),
(166,124,o),
(166,80,cs)
);
},
{
closed = 1;
nodes = (
(202,159,o),
(166,195,o),
(166,240,cs),
(166,284,o),
(202,320,o),
(246,320,cs),
(290,320,o),
(326,284,o),
(326,240,cs),
(326,195,o),
(290,159,o),
(246,159,cs)
);
}
);
width = 491;
}
);
note = o;
unicode = (111,242,243,244,245,246,248);
},
{
glyphname = p;
kernLeft = a;
kernRight = a;
lastChange = "2023-03-06 21:15:41 +0000";
layers = (
{
layerId = m01;
shapes = (
{
closed = 1;
nodes = (
(221,36,o),
(257,0,o),
(301,0,cs),
(420,0,ls),
(464,0,o),
(500,36,o),
(500,80,cs),
(500,240,ls),
(500,284,o),
(464,320,o),
(420,320,cs),
(376,320,o),
(341,355,o),
(341,399,cs),
(341,444,o),
(305,480,o),
(261,480,cs),
(217,480,o),
(181,444,o),
(181,399,cs),
(181,355,o),
(146,320,o),
(102,320,cs),
(57,320,o),
(22,284,o),
(22,240,cs),
(22,-160,ls),
(22,-204,o),
(57,-240,o),
(102,-240,cs),
(146,-240,o),
(181,-204,o),
(181,-160,cs),
(181,240,ls),
(181,284,o),
(217,320,o),
(261,320,cs),
(305,320,o),
(341,284,o),
(341,240,cs),
(341,200,ls),
(341,177,o),
(324,159,o),
(301,159,cs),
(257,159,o),
(221,124,o),
(221,80,cs)
);
}
);
width = 520;
}
);
note = p;
unicode = 112;
},
{
glyphname = q;
kernLeft = a;
kernRight = a;
lastChange = "2023-03-06 21:15:41 +0000";
layers = (
{
layerId = m01;
shapes = (
{
closed = 1;
nodes = (
(179,240,ls),
(179,284,o),
(215,320,o),
(259,320,cs),
(303,320,o),
(339,284,o),
(339,240,cs),
(339,-160,ls),
(339,-204,o),
(374,-240,o),
(418,-240,cs),
(462,-240,o),
(498,-204,o),
(498,-160,cs),
(498,240,ls),
(498,284,o),
(462,320,o),
(418,320,cs),
(374,320,o),
(339,355,o),
(339,399,cs),
(339,444,o),
(303,480,o),
(259,480,cs),
(215,480,o),
(179,444,o),
(179,399,cs),
(179,355,o),
(144,320,o),
(100,320,cs),
(56,320,o),
(20,284,o),
(20,240,cs),
(20,80,ls),
(20,36,o),
(56,0,o),
(100,0,cs),
(219,0,ls),
(263,0,o),
(299,36,o),
(299,80,cs),
(299,124,o),
(263,159,o),
(219,159,cs),
(196,159,o),
(179,177,o),
(179,200,cs)
);
}
);
width = 520;
}
);
note = q;
unicode = 113;
},
{
glyphname = r;
kernLeft = a;
kernRight = r;
lastChange = "2023-03-06 21:15:41 +0000";
layers = (
{
layerId = m01;
shapes = (
{
closed = 1;
nodes = (
(56,320,o),
(20,284,o),
(20,240,cs),
(20,80,ls),
(20,36,o),
(56,0,o),
(100,0,cs),
(145,0,o),
(179,36,o),
(179,80,cs),
(179,240,ls),
(179,284,o),
(215,320,o),
(260,320,cs),
(340,320,ls),
(384,320,o),
(419,355,o),
(419,399,cs),
(419,444,o),
(384,480,o),
(340,480,cs),
(260,480,ls),
(215,480,o),
(179,444,o),
(179,399,cs),
(179,355,o),
(145,320,o),
(100,320,cs)
);
}
);
width = 424;
}
);
note = r;
unicode = 114;
},
{
glyphname = s;
kernLeft = s;
kernRight = s;
lastChange = "2023-03-06 21:15:41 +0000";
layers = (
{
layerId = m01;
shapes = (
{
closed = 1;
nodes = (
(86,159,ls),
(41,159,o),
(6,124,o),
(6,80,cs),
(6,36,o),
(41,0,o),
(86,0,cs),
(364,0,ls),
(408,0,o),
(444,36,o),
(444,80,cs),
(444,240,ls),
(444,284,o),
(408,320,o),
(364,320,cs),
(285,320,ls),
(261,320,o),
(245,338,o),
(245,359,cs),
(245,399,ls),
(245,444,o),
(209,480,o),
(165,480,cs),
(121,480,o),
(86,444,o),
(86,399,cs),
(86,320,ls),
(86,276,o),
(121,240,o),
(165,240,cs),
(245,240,ls),
(266,240,o),
(285,222,o),
(285,200,cs),
(285,177,o),
(266,159,o),
(245,159,cs)
);
}
);
width = 465;
}
);
note = s;
unicode = 115;
},
{
glyphname = t;
kernLeft = L;
kernRight = t;
lastChange = "2023-03-06 21:15:41 +0000";
layers = (
{
layerId = m01;
shapes = (
{
closed = 1;
nodes = (
(180,605,o),
(145,640,o),
(101,640,cs),
(57,640,o),
(21,605,o),
(21,561,cs),
(21,240,ls),
(21,196,o),
(57,160,o),
(101,160,cs),
(145,160,o),
(180,125,o),
(180,81,cs),
(180,37,o),
(216,0,o),
(260,0,cs),
(304,0,o),
(340,37,o),
(340,81,cs),
(340,125,o),
(304,160,o),
(260,160,cs),
(216,160,o),
(180,196,o),
(180,240,cs),
(180,285,o),
(216,321,o),
(260,321,cs),
(304,321,o),
(340,356,o),
(340,400,cs),
(340,444,o),
(304,480,o),
(260,480,cs),
(216,480,o),
(180,516,o),
(180,561,cs)
);
}
);
width = 359;
}
);
note = t;
unicode = 116;
},
{
glyphname = u;
kernLeft = u;
kernRight = u;
lastChange = "2023-03-06 21:15:41 +0000";
layers = (
{
layerId = m01;
shapes = (
{
closed = 1;
nodes = (
(419,0,ls),
(463,0,o),
(499,36,o),
(499,80,cs),
(499,399,ls),
(499,444,o),
(463,480,o),
(419,480,cs),
(374,480,o),
(339,444,o),
(339,399,cs),
(339,240,ls),
(339,195,o),
(303,159,o),
(259,159,cs),
(215,159,o),
(179,195,o),
(179,240,cs),
(179,399,ls),
(179,444,o),
(144,480,o),
(100,480,cs),
(56,480,o),
(20,444,o),
(20,399,cs),
(20,240,ls),
(20,195,o),
(56,159,o),
(100,159,cs),
(144,159,o),
(179,124,o),
(179,80,cs),
(179,36,o),
(215,0,o),
(259,0,cs)
);
}
);
width = 533;
}
);
note = u;
unicode = (117,249,250,251,252);
},
{
glyphname = v;
kernLeft = u;
kernRight = v;
lastChange = "2023-03-06 21:15:41 +0000";
layers = (
{
layerId = m01;
shapes = (
{
closed = 1;
nodes = (
(179,36,o),
(215,0,o),
(259,0,cs),
(304,0,o),
(340,36,o),
(340,80,cs),
(340,124,o),
(375,159,o),
(419,159,cs),
(463,159,o),
(499,195,o),
(499,240,cs),
(499,399,ls),
(499,444,o),
(463,480,o),
(419,480,cs),
(375,480,o),
(340,444,o),
(340,399,cs),
(340,240,ls),
(340,195,o),
(304,159,o),
(259,159,cs),
(215,159,o),
(179,195,o),
(179,240,cs),
(179,399,ls),
(179,444,o),
(144,480,o),
(100,480,cs),
(56,480,o),
(20,444,o),
(20,399,cs),
(20,240,ls),
(20,195,o),
(56,159,o),
(100,159,cs),
(144,159,o),
(179,124,o),
(179,80,cs)
);
}
);
width = 519;
}
);
note = v;
unicode = 118;
},
{
glyphname = w;
kernLeft = u;
kernRight = v;
lastChange = "2023-03-06 21:15:41 +0000";
layers = (
{
layerId = m01;
shapes = (
{
closed = 1;
nodes = (
(295,320,o),
(259,284,o),
(259,240,cs),
(259,217,o),
(243,200,o),
(219,200,cs),
(198,200,o),
(179,217,o),
(179,240,cs),
(179,399,ls),
(179,444,o),
(144,480,o),
(100,480,cs),
(56,480,o),
(20,444,o),
(20,399,cs),
(20,240,ls),
(20,195,o),
(56,159,o),
(100,159,cs),
(144,159,o),
(179,124,o),
(179,80,cs),
(179,36,o),
(215,0,o),
(259,0,cs),
(419,0,ls),
(463,0,o),
(499,36,o),
(499,80,cs),
(499,124,o),
(535,159,o),
(579,159,cs),
(623,159,o),
(658,195,o),
(658,240,cs),
(658,399,ls),
(658,444,o),
(623,480,o),
(579,480,cs),
(535,480,o),
(499,444,o),
(499,399,cs),
(499,240,ls),
(499,217,o),
(481,200,o),
(459,200,cs),
(436,200,o),
(419,217,o),
(419,240,cs),
(419,284,o),
(384,320,o),
(339,320,cs)
);
}
);
width = 679;
}
);
note = w;
unicode = 119;
},
{
glyphname = x;
kernRight = x;
lastChange = "2023-03-06 21:15:41 +0000";
layers = (
{
layerId = m01;
shapes = (
{
closed = 1;
nodes = (
(498,444,o),
(462,480,o),
(418,480,cs),
(373,480,o),
(338,444,o),
(338,399,cs),
(338,355,o),
(302,320,o),
(258,320,cs),
(214,320,o),
(178,355,o),
(178,399,cs),
(178,444,o),
(143,480,o),
(99,480,cs),
(55,480,o),
(19,444,o),
(19,399,cs),
(19,355,o),
(55,320,o),
(99,320,cs),
(143,320,o),
(178,284,o),
(178,240,cs),
(178,195,o),
(143,159,o),
(99,159,cs),
(55,159,o),
(19,124,o),
(19,80,cs),
(19,36,o),
(55,0,o),
(99,0,cs),
(143,0,o),
(178,36,o),
(178,80,cs),
(178,124,o),
(214,159,o),
(258,159,cs),
(302,159,o),
(338,124,o),
(338,80,cs),
(338,36,o),
(373,0,o),
(418,0,cs),
(462,0,o),
(498,36,o),
(498,80,cs),
(498,124,o),
(462,159,o),
(418,159,cs),
(373,159,o),
(338,195,o),
(338,240,cs),
(338,284,o),
(373,320,o),
(418,320,cs),
(462,320,o),
(498,355,o),
(498,399,cs)
);
}
);
width = 517;
}
);
note = x;
unicode = 120;
},
{
glyphname = y;
kernRight = u;
lastChange = "2023-03-06 21:15:41 +0000";
layers = (
{
layerId = m01;
shapes = (
{
closed = 1;
nodes = (
(223,-81,o),
(187,-116,o),
(187,-160,cs),
(187,-204,o),
(223,-240,o),
(267,-240,cs),
(311,-240,o),
(347,-204,o),
(347,-160,cs),
(347,-116,o),
(382,-81,o),
(426,-81,cs),
(471,-81,o),
(507,-44,o),
(507,0,cs),
(507,399,ls),
(507,444,o),
(471,480,o),
(426,480,cs),
(382,480,o),
(347,444,o),
(347,399,cs),
(347,240,ls),
(347,195,o),
(311,159,o),
(267,159,cs),
(223,159,o),
(187,195,o),
(187,240,cs),
(187,399,ls),
(187,444,o),
(152,480,o),
(108,480,cs),
(64,480,o),
(28,444,o),
(28,399,cs),
(28,159,ls),
(28,115,o),
(64,80,o),
(108,80,cs),
(267,80,ls),
(311,80,o),
(347,44,o),
(347,0,cs),
(347,-44,o),
(311,-81,o),
(267,-81,cs)
);
}
);
width = 543;
}
);
note = y;
unicode = (121,253,255);
},
{
glyphname = z;
kernLeft = z;
kernRight = z;
lastChange = "2023-03-06 21:15:41 +0000";
layers = (
{
layerId = m01;
shapes = (
{
closed = 1;
nodes = (
(121,240,o),
(86,204,o),
(86,159,cs),
(86,80,ls),
(86,36,o),
(121,0,o),
(166,0,cs),
(405,0,ls),
(449,0,o),
(485,36,o),
(485,80,cs),
(485,124,o),
(449,159,o),
(405,159,cs),
(326,159,ls),
(302,159,o),
(286,177,o),
(286,200,cs),
(286,399,ls),
(286,444,o),
(250,480,o),
(206,480,cs),
(86,480,ls),
(42,480,o),
(6,444,o),
(6,399,cs),
(6,355,o),
(42,320,o),
(86,320,cs),
(166,320,ls),
(188,320,o),
(206,301,o),
(206,280,cs),
(206,256,o),
(188,240,o),
(166,240,cs)
);
}
);
width = 489;
}
);
note = z;
unicode = 122;
},
{
glyphname = braceleft;
kernLeft = parenleft;
lastChange = "2023-03-06 21:15:41 +0000";
layers = (
{
layerId = m01;
shapes = (
{
closed = 1;
nodes = (
(24,240,ls),
(24,195,o),
(60,159,o),
(104,159,cs),
(149,159,o),
(184,124,o),
(184,80,cs),
(184,36,o),
(220,0,o),
(264,0,cs),
(308,0,o),
(344,36,o),
(344,80,cs),
(344,124,o),
(308,159,o),
(264,159,cs),
(220,159,o),
(184,195,o),
(184,240,cs),
(184,261,o),
(201,280,o),
(224,280,cs),
(246,280,o),
(264,296,o),
(264,320,cs),
(264,343,o),
(246,360,o),
(224,360,cs),
(201,360,o),
(184,378,o),
(184,399,cs),
(184,444,o),
(220,480,o),
(264,480,cs),
(308,480,o),
(344,516,o),
(344,560,cs),
(344,604,o),
(308,639,o),
(264,639,cs),
(220,639,o),
(184,604,o),
(184,560,cs),
(184,516,o),
(149,480,o),
(104,480,cs),
(60,480,o),
(24,444,o),
(24,399,cs)
);
}
);
width = 368;
}
);
note = braceleft;
unicode = 123;
},
{
glyphname = verticalbar;
lastChange = "2023-03-06 21:15:41 +0000";
layers = (
{
layerId = m01;
shapes = (
{
closed = 1;
nodes = (
(39,80,ls),
(39,36,o),
(75,0,o),
(119,0,cs),
(163,0,o),
(198,36,o),
(198,80,cs),
(198,560,ls),
(198,604,o),
(163,639,o),
(119,639,cs),
(75,639,o),
(39,604,o),
(39,560,cs)
);
}
);
width = 238;
}
);
note = verticalbar;
unicode = 124;
},
{
glyphname = braceright;
kernLeft = braceright;
lastChange = "2023-03-06 21:15:41 +0000";
layers = (
{
layerId = m01;
shapes = (
{
closed = 1;
nodes = (
(344,399,ls),
(344,444,o),
(308,480,o),
(263,480,cs),
(219,480,o),
(183,516,o),
(183,560,cs),
(183,604,o),
(148,639,o),
(104,639,cs),
(60,639,o),
(24,604,o),
(24,560,cs),
(24,516,o),
(60,480,o),
(104,480,cs),
(148,480,o),
(183,444,o),
(183,399,cs),
(183,378,o),
(167,360,o),
(143,360,cs),
(122,360,o),
(104,343,o),
(104,320,cs),
(104,296,o),
(122,280,o),
(143,280,cs),
(167,280,o),
(183,261,o),
(183,240,cs),
(183,195,o),
(148,159,o),
(104,159,cs),
(60,159,o),
(24,124,o),
(24,80,cs),
(24,36,o),
(60,0,o),
(104,0,cs),
(148,0,o),
(183,36,o),
(183,80,cs),
(183,124,o),
(219,159,o),
(263,159,cs),
(308,159,o),
(344,195,o),
(344,240,cs)
);
}
);
width = 368;
}
);
note = braceright;
unicode = 125;
},
{
glyphname = hyphen.alt1;
kernLeft = hyphen;
lastChange = "2023-03-06 21:15:41 +0000";
layers = (
{
layerId = m01;
shapes = (
{
closed = 1;
nodes = (
(416,240,ls),
(460,240,o),
(496,276,o),
(496,320,cs),
(496,364,o),
(460,399,o),
(416,399,cs),
(97,399,ls),
(53,399,o),
(17,364,o),
(17,320,cs),
(17,276,o),
(53,240,o),
(97,240,cs)
);
}
